<?xml version="1.0" encoding="utf-8"?>
<svg xmlns="http://www.w3.org/2000/svg" viewBox="0 0 500 500" style="shape-rendering: geometricprecision;">
  <g transform="matrix(0.783513, 0, 0, 0.768586, -297.921182, -52.640375)" style="">
    <path style="opacity:1" fill="#010201" d="M 829.5,137.5 C 823.186,138.941 816.853,140.274 810.5,141.5C 789.637,143.691 768.97,146.357 748.5,149.5C 716.464,152.838 684.464,156.504 652.5,160.5C 650.801,160.66 649.134,160.494 647.5,160C 616.612,143.726 585.946,127.226 555.5,110.5C 616.154,103.001 676.821,95.8342 737.5,89C 768.035,105.434 798.702,121.601 829.5,137.5 Z"/>
  </g>
  <g transform="matrix(0.783513, 0, 0, 0.768586, -297.921182, -52.640375)" style="">
    <path style="opacity:1" fill="#000000" d="M 553.5,114.5 C 584.067,131.284 615.067,147.284 646.5,162.5C 646.5,234.833 646.5,307.167 646.5,379.5C 661.46,377.422 676.46,375.588 691.5,374C 687.833,372.167 684.167,370.333 680.5,368.5C 679.502,360.193 679.169,351.86 679.5,343.5C 683.466,342.838 687.466,342.505 691.5,342.5C 692.495,353.988 692.828,365.655 692.5,377.5C 691.833,377.5 691.5,377.833 691.5,378.5C 676.552,379.479 661.719,381.146 647,383.5C 646.5,412.498 646.333,441.498 646.5,470.5C 660.479,468.948 674.479,467.615 688.5,466.5C 689.833,466.5 691.167,466.5 692.5,466.5C 692.5,467.5 692.5,468.5 692.5,469.5C 677.132,470.862 661.798,472.528 646.5,474.5C 646.5,504.5 646.5,534.5 646.5,564.5C 660.537,563.495 674.537,562.162 688.5,560.5C 689.833,560.5 691.167,560.5 692.5,560.5C 692.5,561.5 692.5,562.5 692.5,563.5C 676.161,565.267 659.828,566.767 643.5,568C 613.105,551.805 582.772,535.638 552.5,519.5C 552.167,384.332 552.5,249.332 553.5,114.5 Z"/>
  </g>
  <g transform="matrix(0.783513, 0, 0, 0.768586, -297.921182, -52.640375)" style="">
    <path style="opacity:1" fill="#4e915b" d="M 829.5,137.5 C 830.71,137.932 831.71,138.599 832.5,139.5C 823.703,139.241 815.703,141.407 808.5,146C 800.57,147.456 792.57,148.622 784.5,149.5C 789.745,147.523 795.078,145.856 800.5,144.5C 804.912,144.098 809.246,143.265 813.5,142C 812.552,141.517 811.552,141.351 810.5,141.5C 816.853,140.274 823.186,138.941 829.5,137.5 Z"/>
  </g>
  <g transform="matrix(0.783513, 0, 0, 0.768586, -297.921182, -52.640375)" style="">
    <path style="opacity:1" fill="#3a9750" d="M 832.5,139.5 C 837.93,141.05 842.93,143.384 847.5,146.5C 814.711,154.007 781.711,161.34 748.5,168.5C 743.85,168.132 739.683,168.132 736,168.5C 735.837,166.324 735.004,164.491 733.5,163C 739.177,160.332 745.177,158.665 751.5,158C 752.056,157.617 752.389,157.117 752.5,156.5C 762.93,153.562 773.597,151.229 784.5,149.5C 792.57,148.622 800.57,147.456 808.5,146C 815.703,141.407 823.703,139.241 832.5,139.5 Z"/>
  </g>
  <g transform="matrix(0.783513, 0, 0, 0.768586, -297.921182, -52.640375)" style="">
    <path style="opacity:1" fill="#49855a" d="M 555.5,110.5 C 585.946,127.226 616.612,143.726 647.5,160C 649.134,160.494 650.801,160.66 652.5,160.5C 650.5,161.167 648.5,161.833 646.5,162.5C 615.067,147.284 584.067,131.284 553.5,114.5C 553.158,113.662 552.492,113.328 551.5,113.5C 551.694,111.088 553.027,110.088 555.5,110.5 Z"/>
  </g>
  <g transform="matrix(0.783513, 0, 0, 0.768586, -297.921182, -52.640375)" style="">
    <path style="opacity:1" fill="#e3e5d9" d="M 810.5,141.5 C 811.552,141.351 812.552,141.517 813.5,142C 809.246,143.265 804.912,144.098 800.5,144.5C 791.384,145.466 782.384,147.299 773.5,150C 766.867,149.805 760.2,150.638 753.5,152.5C 752.614,151.675 752.281,150.675 752.5,149.5C 751.167,149.5 749.833,149.5 748.5,149.5C 768.97,146.357 789.637,143.691 810.5,141.5 Z"/>
  </g>
  <g transform="matrix(0.783513, 0, 0, 0.768586, -297.921182, -52.640375)" style="">
    <path style="opacity:1" fill="#3f9253" d="M 850.5,150.5 C 850.5,193.167 850.5,235.833 850.5,278.5C 848.167,278.5 845.833,278.5 843.5,278.5C 844.552,276.744 846.219,276.077 848.5,276.5C 849.637,252.53 849.804,228.53 849,204.5C 848.727,202.899 848.227,201.399 847.5,200C 848.157,188.05 848.324,175.883 848,163.5C 846.605,164.815 845.605,164.481 845,162.5C 844.577,163.956 843.744,164.456 842.5,164C 841.751,162.266 841.251,160.433 841,158.5C 840,161.167 839,161.167 838,158.5C 837.667,159.167 837.333,159.833 837,160.5C 835.077,157.031 832.743,156.698 830,159.5C 827.818,157.244 825.485,157.244 823,159.5C 821.16,158.167 820.66,158.334 821.5,160C 820.737,160.944 819.737,161.444 818.5,161.5C 814.685,160.695 810.685,160.695 806.5,161.5C 803.285,162.038 800.952,163.705 799.5,166.5C 798.914,166.291 798.414,165.957 798,165.5C 797.333,166.833 796.667,168.167 796,169.5C 795.667,168.833 795.333,168.167 795,167.5C 793.055,168.863 790.888,169.697 788.5,170C 787.874,170.75 787.374,171.584 787,172.5C 785.929,168.959 784.263,168.292 782,170.5C 779.056,169.743 776.056,169.077 773,168.5C 769.895,169.367 766.728,169.701 763.5,169.5C 792.245,162.549 821.245,156.215 850.5,150.5 Z"/>
  </g>
  <g transform="matrix(0.783513, 0, 0, 0.768586, -297.921182, -52.640375)" style="">
    <path style="opacity:1" fill="#389b51" d="M 843.5,278.5 C 829.427,282.239 815.093,285.239 800.5,287.5C 792.334,288.249 784.501,288.249 777,287.5C 775.983,290.028 774.816,290.028 773.5,287.5C 772.575,288.641 771.741,288.641 771,287.5C 770.692,288.308 770.192,288.975 769.5,289.5C 769.891,288.109 769.058,287.109 767,286.5C 765.194,288.952 763.694,288.619 762.5,285.5C 761.41,286.391 761.41,287.391 762.5,288.5C 759.047,289.479 758.714,290.979 761.5,293C 758.91,295.289 757.077,294.789 756,291.5C 754.667,294.167 753.333,294.167 752,291.5C 750.561,293.014 749.061,293.347 747.5,292.5C 748.908,291.757 750.241,290.923 751.5,290C 750.167,290 748.833,290 747.5,290C 746.542,288.853 746.875,287.853 748.5,287C 746.52,285.175 744.187,284.341 741.5,284.5C 741.786,286.277 742.453,287.944 743.5,289.5C 743.176,291.569 742.342,291.902 741,290.5C 740.825,262.791 740.325,235.124 739.5,207.5C 740.563,205.634 739.896,205.134 737.5,206C 737.957,206.414 738.291,206.914 738.5,207.5C 734.998,208.007 731.998,209.34 729.5,211.5C 728.172,238.373 728.172,265.373 729.5,292.5C 727.665,292.259 725.999,292.759 724.5,294C 724.833,293.667 725.167,293.333 725.5,293C 723.926,291.174 723.093,289.007 723,286.5C 721.834,287.834 721.667,289.5 722.5,291.5C 721.395,298.06 720.562,298.06 720,291.5C 718.811,289.767 717.644,288.1 716.5,286.5C 716.333,251.832 716.5,217.165 717,182.5C 725.335,180.726 733.668,178.726 742,176.5C 744.188,176.354 745.521,177.354 746,179.5C 746.465,178.069 747.299,176.903 748.5,176C 748.167,175.667 747.833,175.333 747.5,175C 751.152,174.103 754.819,173.27 758.5,172.5C 760.16,171.828 761.493,170.828 762.5,169.5C 762.833,169.5 763.167,169.5 763.5,169.5C 766.728,169.701 769.895,169.367 773,168.5C 776.056,169.077 779.056,169.743 782,170.5C 784.263,168.292 785.929,168.959 787,172.5C 787.374,171.584 787.874,170.75 788.5,170C 790.888,169.697 793.055,168.863 795,167.5C 795.333,168.167 795.667,168.833 796,169.5C 796.667,168.167 797.333,166.833 798,165.5C 798.414,165.957 798.914,166.291 799.5,166.5C 800.952,163.705 803.285,162.038 806.5,161.5C 810.685,160.695 814.685,160.695 818.5,161.5C 819.737,161.444 820.737,160.944 821.5,160C 820.66,158.334 821.16,158.167 823,159.5C 825.485,157.244 827.818,157.244 830,159.5C 832.743,156.698 835.077,157.031 837,160.5C 837.333,159.833 837.667,159.167 838,158.5C 839,161.167 840,161.167 841,158.5C 841.251,160.433 841.751,162.266 842.5,164C 843.744,164.456 844.577,163.956 845,162.5C 845.605,164.481 846.605,164.815 848,163.5C 848.324,175.883 848.157,188.05 847.5,200C 848.227,201.399 848.727,202.899 849,204.5C 849.804,228.53 849.637,252.53 848.5,276.5C 846.219,276.077 844.552,276.744 843.5,278.5 Z"/>
  </g>
  <g transform="matrix(0.783513, 0, 0, 0.768586, -297.921182, -52.640375)" style="">
    <path style="opacity:1" fill="#1c241b" d="M 740.5,158.5 C 734.729,160.287 728.729,161.62 722.5,162.5C 720.735,161.539 718.735,161.205 716.5,161.5C 724.308,160.075 732.308,159.075 740.5,158.5 Z"/>
  </g>
  <g transform="matrix(0.783513, 0, 0, 0.768586, -297.921182, -52.640375)" style="">
    <path style="opacity:1" fill="#040403" d="M 716.5,161.5 C 718.735,161.205 720.735,161.539 722.5,162.5C 713.997,165.11 705.33,167.11 696.5,168.5C 695.31,170.826 693.31,171.993 690.5,172C 689.167,172.667 689.167,173.333 690.5,174C 688.431,174.324 688.098,175.158 689.5,176.5C 688.624,177.251 687.624,177.751 686.5,178C 688.904,178.508 689.571,179.675 688.5,181.5C 689.972,185.866 691.305,190.2 692.5,194.5C 693.146,223.392 692.479,252.059 690.5,280.5C 678.499,281.833 666.499,283.167 654.5,284.5C 654.333,246.165 654.5,207.832 655,169.5C 675.351,165.997 695.851,163.331 716.5,161.5 Z"/>
  </g>
  <g transform="matrix(0.783513, 0, 0, 0.768586, -297.921182, -52.640375)" style="">
    <path style="opacity:1" fill="#3c9051" d="M 752.5,156.5 C 752.389,157.117 752.056,157.617 751.5,158C 745.177,158.665 739.177,160.332 733.5,163C 735.004,164.491 735.837,166.324 736,168.5C 739.683,168.132 743.85,168.132 748.5,168.5C 737.277,171.137 725.943,173.804 714.5,176.5C 709.975,175.572 705.642,174.072 701.5,172C 699.416,171.303 697.749,170.136 696.5,168.5C 705.33,167.11 713.997,165.11 722.5,162.5C 728.729,161.62 734.729,160.287 740.5,158.5C 744.476,157.705 748.476,157.038 752.5,156.5 Z"/>
  </g>
  <g transform="matrix(0.783513, 0, 0, 0.768586, -297.921182, -52.640375)" style="">
    <path style="opacity:1" fill="#031004" d="M 847.5,146.5 C 848.791,146.263 849.791,146.596 850.5,147.5C 850.5,148.5 850.5,149.5 850.5,150.5C 821.245,156.215 792.245,162.549 763.5,169.5C 763.167,169.5 762.833,169.5 762.5,169.5C 746.954,173.234 731.287,176.567 715.5,179.5C 715.5,221.833 715.5,264.167 715.5,306.5C 720.862,306.116 725.862,304.783 730.5,302.5C 754.164,298.413 777.497,293.413 800.5,287.5C 815.093,285.239 829.427,282.239 843.5,278.5C 845.833,278.5 848.167,278.5 850.5,278.5C 850.833,278.5 851.167,278.5 851.5,278.5C 851.5,279.5 851.5,280.5 851.5,281.5C 851.167,281.5 850.833,281.5 850.5,281.5C 846.216,282.261 842.216,283.595 838.5,285.5C 815.566,292.921 792.899,300.921 770.5,309.5C 769.508,309.328 768.842,309.662 768.5,310.5C 753.244,314.919 738.244,319.919 723.5,325.5C 721.167,326.167 718.833,326.833 716.5,327.5C 714.833,326.167 713.167,326.167 711.5,327.5C 709.278,326.312 706.945,325.312 704.5,324.5C 701.021,322.597 697.354,320.93 693.5,319.5C 693.263,318.209 693.596,317.209 694.5,316.5C 700.087,318.295 705.421,320.628 710.5,323.5C 712.628,324.629 714.961,324.796 717.5,324C 738.227,316.372 758.893,308.872 779.5,301.5C 792.429,297.246 805.429,293.08 818.5,289C 817.667,288.833 816.833,288.667 816,288.5C 794.449,293.433 772.949,298.1 751.5,302.5C 738.954,304.897 726.454,307.564 714,310.5C 713.098,310.257 712.265,309.923 711.5,309.5C 711.833,266.162 711.5,222.828 710.5,179.5C 708.677,178.253 706.677,177.586 704.5,177.5C 701.068,175.423 697.401,173.756 693.5,172.5C 692.508,179.648 692.175,186.981 692.5,194.5C 691.305,190.2 689.972,185.866 688.5,181.5C 689.571,179.675 688.904,178.508 686.5,178C 687.624,177.751 688.624,177.251 689.5,176.5C 688.098,175.158 688.431,174.324 690.5,174C 689.167,173.333 689.167,172.667 690.5,172C 693.31,171.993 695.31,170.826 696.5,168.5C 697.749,170.136 699.416,171.303 701.5,172C 705.642,174.072 709.975,175.572 714.5,176.5C 725.943,173.804 737.277,171.137 748.5,168.5C 781.711,161.34 814.711,154.007 847.5,146.5 Z"/>
  </g>
  <g transform="matrix(0.783513, 0, 0, 0.768586, -297.921182, -52.640375)" style="">
    <path style="opacity:1" fill="#3a9c52" d="M 704.5,177.5 C 704.918,178.222 705.584,178.722 706.5,179C 706.167,179.333 705.833,179.667 705.5,180C 707.134,180.494 708.801,180.66 710.5,180.5C 710.5,222.5 710.5,264.5 710.5,306.5C 709.167,306.5 707.833,306.5 706.5,306.5C 703.088,305.925 700.088,304.592 697.5,302.5C 697.189,301.522 696.522,300.855 695.5,300.5C 694.5,258.505 694.167,216.505 694.5,174.5C 697.63,176.058 700.963,177.058 704.5,177.5 Z"/>
  </g>
  <g transform="matrix(0.783513, 0, 0, 0.768586, -297.921182, -52.640375)" style="">
    <path style="opacity:1" fill="#469058" d="M 762.5,169.5 C 761.493,170.828 760.16,171.828 758.5,172.5C 754.819,173.27 751.152,174.103 747.5,175C 747.833,175.333 748.167,175.667 748.5,176C 747.299,176.903 746.465,178.069 746,179.5C 745.521,177.354 744.188,176.354 742,176.5C 733.668,178.726 725.335,180.726 717,182.5C 716.5,217.165 716.333,251.832 716.5,286.5C 716.5,292.5 716.5,298.5 716.5,304.5C 721.167,303.833 725.833,303.167 730.5,302.5C 725.862,304.783 720.862,306.116 715.5,306.5C 715.5,264.167 715.5,221.833 715.5,179.5C 731.287,176.567 746.954,173.234 762.5,169.5 Z"/>
  </g>
  <g transform="matrix(0.783513, 0, 0, 0.768586, -297.921182, -52.640375)" style="">
    <path style="opacity:1" fill="#459058" d="M 704.5,177.5 C 706.677,177.586 708.677,178.253 710.5,179.5C 711.5,222.828 711.833,266.162 711.5,309.5C 709.632,308.737 707.965,307.737 706.5,306.5C 707.833,306.5 709.167,306.5 710.5,306.5C 710.5,264.5 710.5,222.5 710.5,180.5C 708.801,180.66 707.134,180.494 705.5,180C 705.833,179.667 706.167,179.333 706.5,179C 705.584,178.722 704.918,178.222 704.5,177.5 Z"/>
  </g>
  <g transform="matrix(0.783513, 0, 0, 0.768586, -297.921182, -52.640375)" style="">
    <path style="opacity:1" fill="#539c64" d="M 693.5,172.5 C 697.401,173.756 701.068,175.423 704.5,177.5C 700.963,177.058 697.63,176.058 694.5,174.5C 694.167,216.505 694.5,258.505 695.5,300.5C 696.522,300.855 697.189,301.522 697.5,302.5C 695.83,302.249 694.33,301.582 693,300.5C 692.5,293.842 692.334,287.175 692.5,280.5C 693.498,244.671 693.832,208.671 693.5,172.5 Z"/>
  </g>
  <g transform="matrix(0.783513, 0, 0, 0.768586, -297.921182, -52.640375)" style="">
    <path style="opacity:1" fill="#12371e" d="M 693.5,172.5 C 693.832,208.671 693.498,244.671 692.5,280.5C 691.833,280.5 691.167,280.5 690.5,280.5C 692.479,252.059 693.146,223.392 692.5,194.5C 692.175,186.981 692.508,179.648 693.5,172.5 Z"/>
  </g>
  <g transform="matrix(0.783513, 0, 0, 0.768586, -297.921182, -52.640375)" style="">
    <path style="opacity:1" fill="#edede2" d="M 800.5,144.5 C 795.078,145.856 789.745,147.523 784.5,149.5C 773.597,151.229 762.93,153.562 752.5,156.5C 748.476,157.038 744.476,157.705 740.5,158.5C 732.308,159.075 724.308,160.075 716.5,161.5C 695.851,163.331 675.351,165.997 655,169.5C 654.5,207.832 654.333,246.165 654.5,284.5C 666.499,283.167 678.499,281.833 690.5,280.5C 691.167,280.5 691.833,280.5 692.5,280.5C 692.334,287.175 692.5,293.842 693,300.5C 694.33,301.582 695.83,302.249 697.5,302.5C 700.088,304.592 703.088,305.925 706.5,306.5C 707.965,307.737 709.632,308.737 711.5,309.5C 710.942,310.79 709.942,311.623 708.5,312C 703.423,312.595 698.756,314.095 694.5,316.5C 693.596,317.209 693.263,318.209 693.5,319.5C 694.081,327.441 693.414,335.108 691.5,342.5C 687.466,342.505 683.466,342.838 679.5,343.5C 679.169,351.86 679.502,360.193 680.5,368.5C 684.167,370.333 687.833,372.167 691.5,374C 676.46,375.588 661.46,377.422 646.5,379.5C 646.5,307.167 646.5,234.833 646.5,162.5C 648.5,161.833 650.5,161.167 652.5,160.5C 684.464,156.504 716.464,152.838 748.5,149.5C 749.833,149.5 751.167,149.5 752.5,149.5C 752.281,150.675 752.614,151.675 753.5,152.5C 760.2,150.638 766.867,149.805 773.5,150C 782.384,147.299 791.384,145.466 800.5,144.5 Z"/>
  </g>
  <g transform="matrix(0.783513, 0, 0, 0.768586, -297.921182, -52.640375)" style="">
    <path style="opacity:1" fill="#389b51" d="M 849.5,299.5 C 849.5,384.833 849.5,470.167 849.5,555.5C 806.166,570.834 762.833,586.167 719.5,601.5C 718.5,601.5 717.5,601.5 716.5,601.5C 716.95,511.305 717.117,420.971 717,330.5C 718.491,328.996 720.324,328.163 722.5,328C 723.252,327.329 723.586,326.496 723.5,325.5C 727.582,325.404 731.416,324.404 735,322.5C 736.091,324.346 737.424,325.013 739,324.5C 741.155,322.833 743.655,321.833 746.5,321.5C 747.968,323.333 749.635,323.666 751.5,322.5C 750.975,321.808 750.308,321.308 749.5,321C 750.99,319.228 752.657,319.061 754.5,320.5C 756.323,319.253 758.323,318.586 760.5,318.5C 760.5,317.167 760.5,315.833 760.5,314.5C 763.186,313.157 765.852,311.824 768.5,310.5C 768.842,309.662 769.508,309.328 770.5,309.5C 774.346,308.667 778.179,307.667 782,306.5C 785.532,306.687 789.032,306.687 792.5,306.5C 792.554,307.687 792.887,309.02 793.5,310.5C 793.732,308.668 794.898,307.002 797,305.5C 797.667,306.167 798.333,306.833 799,307.5C 802.11,306.327 802.277,306.827 799.5,309C 800.416,309.374 801.25,309.874 802,310.5C 803.805,309.146 805.138,306.813 806,303.5C 806.333,304.167 806.667,304.833 807,305.5C 807.429,303.331 806.929,301.331 805.5,299.5C 806,299.167 806.5,298.833 807,298.5C 809.571,302.179 811.905,302.179 814,298.5C 814.333,299.5 814.667,300.5 815,301.5C 816.356,300.62 817.856,300.286 819.5,300.5C 819.5,299.5 819.5,298.5 819.5,297.5C 822.319,296.298 824.819,296.298 827,297.5C 827.333,296.167 827.667,294.833 828,293.5C 828.875,295.513 830.209,295.513 832,293.5C 833,293.833 834,294.167 835,294.5C 837.096,293.285 836.929,292.451 834.5,292C 835.784,291.316 836.951,291.483 838,292.5C 838,291.167 838,289.833 838,288.5C 840,288.5 842,288.5 844,288.5C 844.708,291.268 846.208,292.101 848.5,291C 848.167,291.333 847.833,291.667 847.5,292C 848.123,294.607 848.79,297.107 849.5,299.5 Z"/>
  </g>
  <g transform="matrix(0.783513, 0, 0, 0.768586, -297.921182, -52.640375)" style="">
    <path style="opacity:1" fill="#3d9553" d="M 849.5,299.5 C 848.79,297.107 848.123,294.607 847.5,292C 847.833,291.667 848.167,291.333 848.5,291C 846.208,292.101 844.708,291.268 844,288.5C 842,288.5 840,288.5 838,288.5C 838,289.833 838,291.167 838,292.5C 836.951,291.483 835.784,291.316 834.5,292C 836.929,292.451 837.096,293.285 835,294.5C 834,294.167 833,293.833 832,293.5C 830.209,295.513 828.875,295.513 828,293.5C 827.667,294.833 827.333,296.167 827,297.5C 824.819,296.298 822.319,296.298 819.5,297.5C 819.5,298.5 819.5,299.5 819.5,300.5C 817.856,300.286 816.356,300.62 815,301.5C 814.667,300.5 814.333,299.5 814,298.5C 811.905,302.179 809.571,302.179 807,298.5C 806.5,298.833 806,299.167 805.5,299.5C 806.929,301.331 807.429,303.331 807,305.5C 806.667,304.833 806.333,304.167 806,303.5C 805.138,306.813 803.805,309.146 802,310.5C 801.25,309.874 800.416,309.374 799.5,309C 802.277,306.827 802.11,306.327 799,307.5C 798.333,306.833 797.667,306.167 797,305.5C 794.898,307.002 793.732,308.668 793.5,310.5C 792.887,309.02 792.554,307.687 792.5,306.5C 789.032,306.687 785.532,306.687 782,306.5C 778.179,307.667 774.346,308.667 770.5,309.5C 792.899,300.921 815.566,292.921 838.5,285.5C 842.154,285.058 845.821,284.724 849.5,284.5C 849.5,289.5 849.5,294.5 849.5,299.5 Z"/>
  </g>
  <g transform="matrix(0.783513, 0, 0, 0.768586, -297.921182, -52.640375)" style="">
    <path style="opacity:1" fill="#3d9052" d="M 800.5,287.5 C 777.497,293.413 754.164,298.413 730.5,302.5C 725.833,303.167 721.167,303.833 716.5,304.5C 716.5,298.5 716.5,292.5 716.5,286.5C 717.644,288.1 718.811,289.767 720,291.5C 720.562,298.06 721.395,298.06 722.5,291.5C 721.667,289.5 721.834,287.834 723,286.5C 723.093,289.007 723.926,291.174 725.5,293C 725.167,293.333 724.833,293.667 724.5,294C 725.999,292.759 727.665,292.259 729.5,292.5C 728.172,265.373 728.172,238.373 729.5,211.5C 731.998,209.34 734.998,208.007 738.5,207.5C 738.291,206.914 737.957,206.414 737.5,206C 739.896,205.134 740.563,205.634 739.5,207.5C 740.325,235.124 740.825,262.791 741,290.5C 742.342,291.902 743.176,291.569 743.5,289.5C 742.453,287.944 741.786,286.277 741.5,284.5C 744.187,284.341 746.52,285.175 748.5,287C 746.875,287.853 746.542,288.853 747.5,290C 748.833,290 750.167,290 751.5,290C 750.241,290.923 748.908,291.757 747.5,292.5C 749.061,293.347 750.561,293.014 752,291.5C 753.333,294.167 754.667,294.167 756,291.5C 757.077,294.789 758.91,295.289 761.5,293C 758.714,290.979 759.047,289.479 762.5,288.5C 761.41,287.391 761.41,286.391 762.5,285.5C 763.694,288.619 765.194,288.952 767,286.5C 769.058,287.109 769.891,288.109 769.5,289.5C 770.192,288.975 770.692,288.308 771,287.5C 771.741,288.641 772.575,288.641 773.5,287.5C 774.816,290.028 775.983,290.028 777,287.5C 784.501,288.249 792.334,288.249 800.5,287.5 Z"/>
  </g>
  <g transform="matrix(0.783513, 0, 0, 0.768586, -297.921182, -52.640375)" style="">
    <path style="opacity:1" fill="#001d05" d="M 729.5,211.5 C 730.5,211.5 731.5,211.5 732.5,211.5C 730.852,236.778 729.852,262.111 729.5,287.5C 729.5,262.167 729.5,236.833 729.5,211.5 Z"/>
  </g>
  <g transform="matrix(0.783513, 0, 0, 0.768586, -297.921182, -52.640375)" style="">
    <path style="opacity:1" fill="#000200" d="M 729.5,287.5 C 729.852,262.111 730.852,236.778 732.5,211.5C 734.5,211.167 736.5,210.833 738.5,210.5C 738.5,236.833 738.5,263.167 738.5,289.5C 734.988,290.055 731.988,289.388 729.5,287.5 Z"/>
  </g>
  <g transform="matrix(0.783513, 0, 0, 0.768586, -297.921182, -52.640375)" style="">
    <path style="opacity:1" fill="#45804f" d="M 779.5,301.5 C 780.172,300.733 781.005,300.066 782,299.5C 782.667,298.833 782.667,298.167 782,297.5C 771.983,299.872 761.816,301.539 751.5,302.5C 772.949,298.1 794.449,293.433 816,288.5C 816.833,288.667 817.667,288.833 818.5,289C 805.429,293.08 792.429,297.246 779.5,301.5 Z"/>
  </g>
  <g transform="matrix(0.783513, 0, 0, 0.768586, -297.921182, -52.640375)" style="">
    <path style="opacity:1" fill="#409153" d="M 779.5,301.5 C 758.893,308.872 738.227,316.372 717.5,324C 714.961,324.796 712.628,324.629 710.5,323.5C 705.421,320.628 700.087,318.295 694.5,316.5C 698.756,314.095 703.423,312.595 708.5,312C 709.942,311.623 710.942,310.79 711.5,309.5C 712.265,309.923 713.098,310.257 714,310.5C 726.454,307.564 738.954,304.897 751.5,302.5C 761.816,301.539 771.983,299.872 782,297.5C 782.667,298.167 782.667,298.833 782,299.5C 781.005,300.066 780.172,300.733 779.5,301.5 Z"/>
  </g>
  <g transform="matrix(0.783513, 0, 0, 0.768586, -297.921182, -52.640375)" style="">
    <path style="opacity:1" fill="#3a9c54" d="M 710.5,323.5 C 710.343,322.127 710.51,320.793 711,319.5C 714.346,320.089 714.346,319.422 711,317.5C 708.942,318.109 708.109,319.109 708.5,320.5C 707.246,318.741 707.579,317.241 709.5,316C 708.833,315.667 708.167,315.333 707.5,315C 709.764,315.698 711.597,315.198 713,313.5C 714.049,314.517 715.216,314.684 716.5,314C 714.405,313.444 714.238,312.944 716,312.5C 718.195,313.8 720.528,314.8 723,315.5C 723.667,314.833 723.667,314.167 723,313.5C 721.391,312.853 719.891,312.02 718.5,311C 721.23,310.272 723.897,310.438 726.5,311.5C 726.998,312.603 727.331,313.603 727.5,314.5C 728.167,313.5 728.833,312.5 729.5,311.5C 729.736,312.247 730.07,313.08 730.5,314C 734.185,314.914 733.852,315.581 729.5,316C 724.037,320.547 717.703,323.047 710.5,323.5 Z"/>
  </g>
  <g transform="matrix(0.783513, 0, 0, 0.768586, -297.921182, -52.640375)" style="">
    <path style="opacity:1" fill="#3c8d50" d="M 768.5,310.5 C 765.852,311.824 763.186,313.157 760.5,314.5C 760.5,315.833 760.5,317.167 760.5,318.5C 758.323,318.586 756.323,319.253 754.5,320.5C 752.657,319.061 750.99,319.228 749.5,321C 750.308,321.308 750.975,321.808 751.5,322.5C 749.635,323.666 747.968,323.333 746.5,321.5C 743.655,321.833 741.155,322.833 739,324.5C 737.424,325.013 736.091,324.346 735,322.5C 731.416,324.404 727.582,325.404 723.5,325.5C 738.244,319.919 753.244,314.919 768.5,310.5 Z"/>
  </g>
  <g transform="matrix(0.783513, 0, 0, 0.768586, -297.921182, -52.640375)" style="">
    <path style="opacity:1" fill="#000100" d="M 734.5,338.5 C 735.833,338.5 737.167,338.5 738.5,338.5C 738.833,364.842 738.5,391.175 737.5,417.5C 735.591,418.348 733.591,418.682 731.5,418.5C 730.502,392.672 730.169,366.672 730.5,340.5C 731.833,339.833 733.167,339.167 734.5,338.5 Z"/>
  </g>
  <g transform="matrix(0.783513, 0, 0, 0.768586, -297.921182, -52.640375)" style="">
    <path style="opacity:1" fill="#eeefe3" d="M 691.5,378.5 C 692.496,391.99 692.829,405.656 692.5,419.5C 691.833,419.5 691.5,419.833 691.5,420.5C 687.785,420.423 684.119,420.756 680.5,421.5C 680.334,429.84 680.5,438.173 681,446.5C 684.329,448.582 687.829,450.248 691.5,451.5C 691.842,452.338 692.508,452.672 693.5,452.5C 693.5,456.833 693.5,461.167 693.5,465.5C 691.585,465.216 689.919,465.549 688.5,466.5C 674.479,467.615 660.479,468.948 646.5,470.5C 646.333,441.498 646.5,412.498 647,383.5C 661.719,381.146 676.552,379.479 691.5,378.5 Z"/>
  </g>
  <g transform="matrix(0.783513, 0, 0, 0.768586, -297.921182, -52.640375)" style="">
    <path style="opacity:1" fill="#001a03" d="M 730.5,340.5 C 730.169,366.672 730.502,392.672 731.5,418.5C 731.158,419.338 730.492,419.672 729.5,419.5C 729.169,392.995 729.502,366.661 730.5,340.5 Z"/>
  </g>
  <g transform="matrix(0.783513, 0, 0, 0.768586, -297.921182, -52.640375)" style="">
    <path style="opacity:1" fill="#92bc99" d="M 691.5,378.5 C 691.5,377.833 691.833,377.5 692.5,377.5C 693.496,391.323 693.829,405.323 693.5,419.5C 693.167,419.5 692.833,419.5 692.5,419.5C 692.829,405.656 692.496,391.99 691.5,378.5 Z"/>
  </g>
  <g transform="matrix(0.783513, 0, 0, 0.768586, -297.921182, -52.640375)" style="">
    <path style="opacity:1" fill="#22221e" d="M 551.5,113.5 C 552.492,113.328 553.158,113.662 553.5,114.5C 552.5,249.332 552.167,384.332 552.5,519.5C 551.502,485.337 551.168,451.004 551.5,416.5C 551.5,414.167 551.5,411.833 551.5,409.5C 551.5,311.167 551.5,212.833 551.5,114.5C 551.5,114.167 551.5,113.833 551.5,113.5 Z"/>
  </g>
  <g transform="matrix(0.783513, 0, 0, 0.768586, -297.921182, -52.640375)" style="">
    <path style="opacity:1" fill="#459257" d="M 734.5,338.5 C 733.167,339.167 731.833,339.833 730.5,340.5C 729.502,366.661 729.169,392.995 729.5,419.5C 728.336,392.67 728.17,365.67 729,338.5C 730.626,338.146 732.459,338.146 734.5,338.5 Z"/>
  </g>
  <g transform="matrix(0.783513, 0, 0, 0.768586, -297.921182, -52.640375)" style="">
    <path style="opacity:1" fill="#020302" d="M 691.5,420.5 C 692.833,430.833 692.833,441.167 691.5,451.5C 687.829,450.248 684.329,448.582 681,446.5C 680.5,438.173 680.334,429.84 680.5,421.5C 684.119,420.756 687.785,420.423 691.5,420.5 Z"/>
  </g>
  <g transform="matrix(0.783513, 0, 0, 0.768586, -297.921182, -52.640375)" style="">
    <path style="opacity:1" fill="#1a4126" d="M 691.5,420.5 C 691.5,419.833 691.833,419.5 692.5,419.5C 692.833,419.5 693.167,419.5 693.5,419.5C 693.5,430.5 693.5,441.5 693.5,452.5C 692.508,452.672 691.842,452.338 691.5,451.5C 692.833,441.167 692.833,430.833 691.5,420.5 Z"/>
  </g>
  <g transform="matrix(0.783513, 0, 0, 0.768586, -297.921182, -52.640375)" style="">
    <path style="opacity:1" fill="#389b52" d="M 704.5,324.5 C 705.828,326.719 707.828,328.052 710.5,328.5C 710.5,419.167 710.5,509.833 710.5,600.5C 709.5,600.5 708.5,600.5 707.5,600.5C 706.508,600.672 705.842,600.338 705.5,599.5C 703.663,596.895 701.33,594.728 698.5,593C 697.207,592.51 695.873,592.343 694.5,592.5C 694.167,503.164 694.5,413.831 695.5,324.5C 696.167,323.833 696.833,323.167 697.5,322.5C 699.523,324.173 701.856,324.84 704.5,324.5 Z"/>
  </g>
  <g transform="matrix(0.783513, 0, 0, 0.768586, -297.921182, -52.640375)" style="">
    <path style="opacity:1" fill="#061508" d="M 716.5,327.5 C 715.501,418.998 715.167,510.665 715.5,602.5C 714.167,603.833 712.833,603.833 711.5,602.5C 711.5,510.833 711.5,419.167 711.5,327.5C 713.167,326.167 714.833,326.167 716.5,327.5 Z"/>
  </g>
  <g transform="matrix(0.783513, 0, 0, 0.768586, -297.921182, -52.640375)" style="">
    <path style="opacity:1" fill="#2b452e" d="M 688.5,466.5 C 689.919,465.549 691.585,465.216 693.5,465.5C 693.5,466.833 693.5,468.167 693.5,469.5C 693.167,469.5 692.833,469.5 692.5,469.5C 692.5,468.5 692.5,467.5 692.5,466.5C 691.167,466.5 689.833,466.5 688.5,466.5 Z"/>
  </g>
  <g transform="matrix(0.783513, 0, 0, 0.768586, -297.921182, -52.640375)" style="">
    <path style="opacity:1" fill="#eeefe3" d="M 692.5,469.5 C 692.833,469.5 693.167,469.5 693.5,469.5C 693.5,499.5 693.5,529.5 693.5,559.5C 691.585,559.216 689.919,559.549 688.5,560.5C 674.537,562.162 660.537,563.495 646.5,564.5C 646.5,534.5 646.5,504.5 646.5,474.5C 661.798,472.528 677.132,470.862 692.5,469.5 Z"/>
  </g>
  <g transform="matrix(0.783513, 0, 0, 0.768586, -297.921182, -52.640375)" style="">
    <path style="opacity:1" fill="#4f935b" d="M 850.5,281.5 C 850.833,373.002 850.499,464.335 849.5,555.5C 849.5,470.167 849.5,384.833 849.5,299.5C 849.5,294.5 849.5,289.5 849.5,284.5C 845.821,284.724 842.154,285.058 838.5,285.5C 842.216,283.595 846.216,282.261 850.5,281.5 Z"/>
  </g>
  <g transform="matrix(0.783513, 0, 0, 0.768586, -297.921182, -52.640375)" style="">
    <path style="opacity:1" fill="#000000" d="M 873.5,493.5 C 903.167,493.5 932.833,493.5 962.5,493.5C 962.5,494.5 962.5,495.5 962.5,496.5C 932.833,496.5 903.167,496.5 873.5,496.5C 873.5,495.5 873.5,494.5 873.5,493.5 Z"/>
  </g>
  <g transform="matrix(0.783513, 0, 0, 0.768586, -297.921182, -52.640375)" style="">
    <path style="opacity:1" fill="#636362" d="M 873.5,493.5 C 873.5,494.5 873.5,495.5 873.5,496.5C 903.167,496.5 932.833,496.5 962.5,496.5C 962.5,497.167 962.167,497.5 961.5,497.5C 931.833,497.5 902.167,497.5 872.5,497.5C 872.232,495.901 872.566,494.568 873.5,493.5 Z"/>
  </g>
  <g transform="matrix(0.783513, 0, 0, 0.768586, -297.921182, -52.640375)" style="">
    <path style="opacity:1" fill="#3c874d" d="M 693.5,319.5 C 697.354,320.93 701.021,322.597 704.5,324.5C 701.856,324.84 699.523,324.173 697.5,322.5C 696.833,323.167 696.167,323.833 695.5,324.5C 694.5,413.831 694.167,503.164 694.5,592.5C 695.873,592.343 697.207,592.51 698.5,593C 701.33,594.728 703.663,596.895 705.5,599.5C 703.313,598.242 700.98,597.242 698.5,596.5C 697.152,595.399 695.652,594.399 694,593.5C 693.5,583.506 693.334,573.506 693.5,563.5C 693.5,562.167 693.5,560.833 693.5,559.5C 693.5,529.5 693.5,499.5 693.5,469.5C 693.5,468.167 693.5,466.833 693.5,465.5C 693.5,461.167 693.5,456.833 693.5,452.5C 693.5,441.5 693.5,430.5 693.5,419.5C 693.829,405.323 693.496,391.323 692.5,377.5C 692.828,365.655 692.495,353.988 691.5,342.5C 693.414,335.108 694.081,327.441 693.5,319.5 Z"/>
  </g>
  <g transform="matrix(0.783513, 0, 0, 0.768586, -297.921182, -52.640375)" style="">
    <path style="opacity:1" fill="#646562" d="M 533.5,493.5 C 534.434,494.568 534.768,495.901 534.5,497.5C 504.329,497.831 474.329,497.498 444.5,496.5C 474.167,496.5 503.833,496.5 533.5,496.5C 533.5,495.5 533.5,494.5 533.5,493.5 Z"/>
  </g>
  <g transform="matrix(0.783513, 0, 0, 0.768586, -297.921182, -52.640375)" style="">
    <path style="opacity:1" fill="#000000" d="M 444.5,493.5 C 474.167,493.5 503.833,493.5 533.5,493.5C 533.5,494.5 533.5,495.5 533.5,496.5C 503.833,496.5 474.167,496.5 444.5,496.5C 444.5,495.5 444.5,494.5 444.5,493.5 Z"/>
  </g>
  <g transform="matrix(0.783513, 0, 0, 0.768586, -297.921182, -52.640375)" style="">
    <path style="opacity:1" fill="#48935a" d="M 704.5,324.5 C 706.945,325.312 709.278,326.312 711.5,327.5C 711.5,419.167 711.5,510.833 711.5,602.5C 709.847,602.34 708.514,601.674 707.5,600.5C 708.5,600.5 709.5,600.5 710.5,600.5C 710.5,509.833 710.5,419.167 710.5,328.5C 707.828,328.052 705.828,326.719 704.5,324.5 Z"/>
  </g>
  <g transform="matrix(0.783513, 0, 0, 0.768586, -297.921182, -52.640375)" style="">
    <path style="opacity:1" fill="#4d9861" d="M 723.5,325.5 C 723.586,326.496 723.252,327.329 722.5,328C 720.324,328.163 718.491,328.996 717,330.5C 717.117,420.971 716.95,511.305 716.5,601.5C 717.5,601.5 718.5,601.5 719.5,601.5C 718.432,602.434 717.099,602.768 715.5,602.5C 715.167,510.665 715.501,418.998 716.5,327.5C 718.833,326.833 721.167,326.167 723.5,325.5 Z"/>
  </g>
  <g transform="matrix(0.783513, 0, 0, 0.768586, -297.921182, -52.640375)" style="">
    <path style="opacity:1" fill="#3f9a53" d="M 546.5,552.5 C 545.226,553.189 545.226,554.023 546.5,555C 549.412,556.373 552.246,557.873 555,559.5C 554.204,562.03 553.871,564.696 554,567.5C 556.885,570.048 559.385,572.882 561.5,576C 559.076,579.439 557.742,583.273 557.5,587.5C 557.5,589.833 557.5,592.167 557.5,594.5C 553.597,595.362 551.097,597.696 550,601.5C 545.862,601.005 541.862,600.005 538,598.5C 535.667,599.833 533.333,599.833 531,598.5C 530.817,595.635 530.317,592.969 529.5,590.5C 527.552,588.211 525.552,585.878 523.5,583.5C 526.521,580.314 529.354,576.98 532,573.5C 532.108,569.823 532.108,566.157 532,562.5C 536.699,560.634 539.866,557.301 541.5,552.5C 543.299,551.212 544.965,551.212 546.5,552.5 Z"/>
  </g>
  <g transform="matrix(0.783513, 0, 0, 0.768586, -297.921182, -52.640375)" style="">
    <path style="opacity:1" fill="#37513c" d="M 688.5,560.5 C 689.919,559.549 691.585,559.216 693.5,559.5C 693.5,560.833 693.5,562.167 693.5,563.5C 693.167,563.5 692.833,563.5 692.5,563.5C 692.5,562.5 692.5,561.5 692.5,560.5C 691.167,560.5 689.833,560.5 688.5,560.5 Z"/>
  </g>
  <g transform="matrix(0.783513, 0, 0, 0.768586, -297.921182, -52.640375)" style=""/>
  <g transform="matrix(0.783513, 0, 0, 0.768586, -297.921182, -52.640375)" style="">
    <path style="opacity:1" fill="#020402" d="M 546.5,552.5 C 562.56,554.277 575.393,561.611 585,574.5C 590.118,585.514 587.951,595.014 578.5,603C 569.859,608.655 560.525,612.655 550.5,615C 558.629,616.821 566.296,619.821 573.5,624C 576.605,628.107 577.272,632.607 575.5,637.5C 573.066,640.438 570.399,643.271 567.5,646C 561.521,648.818 555.521,651.318 549.5,653.5C 534.905,655.638 520.238,657.305 505.5,658.5C 497.427,654.629 489.427,650.462 481.5,646C 469.823,644.415 458.156,642.749 446.5,641C 443.701,636.8 442.701,632.3 443.5,627.5C 449.813,623.509 456.48,620.343 463.5,618C 457.888,615.861 452.554,613.194 447.5,610C 432.912,598.418 429.579,584.251 437.5,567.5C 442.763,560.521 449.763,556.021 458.5,554C 468.69,552.895 478.69,553.728 488.5,556.5C 487.152,557.601 485.652,558.601 484,559.5C 483.598,560.872 483.098,562.205 482.5,563.5C 478.826,564.233 475.159,564.899 471.5,565.5C 471.466,568.443 471.133,571.443 470.5,574.5C 468.64,575.26 466.973,576.26 465.5,577.5C 463.243,577.962 461.243,578.962 459.5,580.5C 461.473,583.64 463.64,586.64 466,589.5C 466.664,593.848 465.331,597.514 462,600.5C 461.032,606.929 462.865,612.429 467.5,617C 468.5,617.667 469.5,617.667 470.5,617C 467.968,613.298 465.635,609.465 463.5,605.5C 463.977,604.522 464.643,603.689 465.5,603C 474.38,600.381 483.38,599.881 492.5,601.5C 493.568,602.434 494.901,602.768 496.5,602.5C 491.934,605.557 487.767,609.224 484,613.5C 482.664,616.009 481.83,618.676 481.5,621.5C 481.34,623.355 482.007,624.688 483.5,625.5C 490.074,631.449 497.907,634.449 507,634.5C 517.396,634.626 526.729,631.626 535,625.5C 538.243,621.238 538.243,616.904 535,612.5C 531.962,609.631 529.129,606.631 526.5,603.5C 527.5,602.833 528.5,602.167 529.5,601.5C 536.18,601.612 542.847,601.946 549.5,602.5C 549.138,606.203 547.471,609.203 544.5,611.5C 544.833,611.833 545.167,612.167 545.5,612.5C 548.751,610.625 551.918,608.625 555,606.5C 555.667,605.833 555.667,605.167 555,604.5C 553.647,603.315 552.48,601.981 551.5,600.5C 553.687,598.15 556.187,596.15 559,594.5C 559.826,591.788 559.326,589.455 557.5,587.5C 557.742,583.273 559.076,579.439 561.5,576C 559.385,572.882 556.885,570.048 554,567.5C 553.871,564.696 554.204,562.03 555,559.5C 552.246,557.873 549.412,556.373 546.5,555C 545.226,554.023 545.226,553.189 546.5,552.5 Z"/>
  </g>
  <g transform="matrix(0.783513, 0, 0, 0.768586, -297.921182, -52.640375)" style="">
    <path style="opacity:1" fill="#4a925a" d="M 465.5,577.5 C 462.894,581.152 463.894,583.652 468.5,585C 468.938,590.174 468.272,595.008 466.5,599.5C 474.431,599.73 482.431,599.73 490.5,599.5C 490.854,597.459 490.854,595.626 490.5,594C 491.503,592.454 492.503,592.287 493.5,593.5C 492.612,596.054 492.279,598.721 492.5,601.5C 483.38,599.881 474.38,600.381 465.5,603C 464.643,603.689 463.977,604.522 463.5,605.5C 465.635,609.465 467.968,613.298 470.5,617C 469.5,617.667 468.5,617.667 467.5,617C 462.865,612.429 461.032,606.929 462,600.5C 465.331,597.514 466.664,593.848 466,589.5C 463.64,586.64 461.473,583.64 459.5,580.5C 461.243,578.962 463.243,577.962 465.5,577.5 Z"/>
  </g>
  <g transform="matrix(0.783513, 0, 0, 0.768586, -297.921182, -52.640375)" style="">
    <path style="opacity:1" fill="#3f9a54" d="M 488.5,556.5 C 490.99,561.296 494.323,565.463 498.5,569C 496.911,571.512 495.578,574.178 494.5,577C 496.423,580.178 498.089,583.512 499.5,587C 498.015,589.652 496.015,591.818 493.5,593.5C 492.503,592.287 491.503,592.454 490.5,594C 490.854,595.626 490.854,597.459 490.5,599.5C 482.431,599.73 474.431,599.73 466.5,599.5C 468.272,595.008 468.938,590.174 468.5,585C 463.894,583.652 462.894,581.152 465.5,577.5C 466.973,576.26 468.64,575.26 470.5,574.5C 471.133,571.443 471.466,568.443 471.5,565.5C 475.159,564.899 478.826,564.233 482.5,563.5C 483.098,562.205 483.598,560.872 484,559.5C 485.652,558.601 487.152,557.601 488.5,556.5 Z"/>
  </g>
  <g transform="matrix(0.783513, 0, 0, 0.768586, -297.921182, -52.640375)" style="">
    <path style="opacity:1" fill="#488857" d="M 557.5,587.5 C 559.326,589.455 559.826,591.788 559,594.5C 556.187,596.15 553.687,598.15 551.5,600.5C 552.48,601.981 553.647,603.315 555,604.5C 555.667,605.167 555.667,605.833 555,606.5C 551.918,608.625 548.751,610.625 545.5,612.5C 545.167,612.167 544.833,611.833 544.5,611.5C 547.471,609.203 549.138,606.203 549.5,602.5C 542.847,601.946 536.18,601.612 529.5,601.5C 529.5,597.833 529.5,594.167 529.5,590.5C 530.317,592.969 530.817,595.635 531,598.5C 533.333,599.833 535.667,599.833 538,598.5C 541.862,600.005 545.862,601.005 550,601.5C 551.097,597.696 553.597,595.362 557.5,594.5C 557.5,592.167 557.5,589.833 557.5,587.5 Z"/>
  </g>
  <g transform="matrix(0.783513, 0, 0, 0.768586, -297.921182, -52.640375)" style="">
    <path style="opacity:1" fill="#020402" d="M 810.5,605.5 C 801.474,619.731 796.64,635.398 796,652.5C 786.937,661.068 777.77,669.402 768.5,677.5C 764.712,680.899 760.712,684.066 756.5,687C 738.345,690.207 720.179,693.374 702,696.5C 686.419,690.623 670.919,684.623 655.5,678.5C 653.11,677.554 650.944,676.221 649,674.5C 642.055,663.889 634.722,653.556 627,643.5C 626.333,642.5 626.333,641.5 627,640.5C 628.594,635.334 631.76,633.001 636.5,633.5C 635.937,635.91 635.437,638.243 635,640.5C 639.096,644.436 643.596,647.77 648.5,650.5C 650.55,652.547 652.883,654.214 655.5,655.5C 657.819,658.294 660.819,660.128 664.5,661C 672.397,663.69 680.397,665.857 688.5,667.5C 694.669,670.001 701.169,671.668 708,672.5C 720.552,670.237 733.052,667.737 745.5,665C 756.376,661.069 765.709,654.903 773.5,646.5C 787.383,634.044 797.216,619.044 803,601.5C 801.549,599.536 799.716,598.203 797.5,597.5C 803.566,593.964 808.566,595.297 812.5,601.5C 811.37,602.622 810.703,603.956 810.5,605.5 Z"/>
  </g>
  <g transform="matrix(0.783513, 0, 0, 0.768586, -297.921182, -52.640375)" style="">
    <path style="opacity:1" fill="#3f9353" d="M 526.5,603.5 C 529.129,606.631 531.962,609.631 535,612.5C 538.243,616.904 538.243,621.238 535,625.5C 526.729,631.626 517.396,634.626 507,634.5C 497.907,634.449 490.074,631.449 483.5,625.5C 482.007,624.688 481.34,623.355 481.5,621.5C 481.83,618.676 482.664,616.009 484,613.5C 487.767,609.224 491.934,605.557 496.5,602.5C 506.61,600.915 516.61,601.248 526.5,603.5 Z"/>
  </g>
  <g transform="matrix(0.783513, 0, 0, 0.768586, -297.921182, -52.640375)" style="">
    <path style="opacity:1" fill="#ddf4de" d="M 502.5,605.5 C 504.5,605.5 506.5,605.5 508.5,605.5C 508.5,606.5 508.5,607.5 508.5,608.5C 502.324,609.335 496.657,611.335 491.5,614.5C 491.297,612.61 491.963,611.11 493.5,610C 496.592,608.454 499.592,606.954 502.5,605.5 Z"/>
  </g>
  <g transform="matrix(0.783513, 0, 0, 0.768586, -297.921182, -52.640375)" style="">
    <path style="opacity:1" fill="#3b9c51" d="M 483.5,625.5 C 483.5,623.5 483.5,621.5 483.5,619.5C 485.401,619.567 487.234,619.233 489,618.5C 491.021,620.508 493.354,622.174 496,623.5C 496.915,622.672 497.581,621.672 498,620.5C 499,622.167 500.333,623.5 502,624.5C 502.333,623.5 502.667,622.5 503,621.5C 503.826,623.405 504.993,623.739 506.5,622.5C 505.478,621.646 504.645,620.646 504,619.5C 502.612,620.554 501.112,620.72 499.5,620C 500.167,619.667 500.833,619.333 501.5,619C 495.48,618.125 494.98,615.958 500,612.5C 502.078,613.943 502.911,613.276 502.5,610.5C 504.857,610.663 507.19,610.497 509.5,610C 510.38,608.644 510.714,607.144 510.5,605.5C 515.426,605.832 520.759,606.332 526.5,607C 523.622,609.694 524.288,611.194 528.5,611.5C 528.694,613.263 528.694,615.097 528.5,617C 530.995,618.664 532.995,620.83 534.5,623.5C 534.167,623.833 533.833,624.167 533.5,624.5C 529.814,622.823 527.48,620.49 526.5,617.5C 525.646,618.522 524.646,619.355 523.5,620C 524.863,622.129 524.529,622.629 522.5,621.5C 522.167,622 521.833,622.5 521.5,623C 522.478,624.697 523.644,625.864 525,626.5C 525.915,625.672 526.581,624.672 527,623.5C 527.333,624.167 527.667,624.833 528,625.5C 528.718,624.549 529.551,624.383 530.5,625C 529.663,626.011 529.33,627.178 529.5,628.5C 527.403,628.003 525.57,627.67 524,627.5C 523.751,628.624 523.251,629.624 522.5,630.5C 517.739,628.381 512.739,627.214 507.5,627C 510.121,626.094 509.954,625.594 507,625.5C 504.046,625.594 503.879,626.094 506.5,627C 505.833,627.333 505.167,627.667 504.5,628C 506.256,628.202 507.922,628.702 509.5,629.5C 509.333,629.833 509.167,630.167 509,630.5C 506.849,630.274 504.683,630.941 502.5,632.5C 495.83,630.995 489.496,628.661 483.5,625.5 Z"/>
  </g>
  <g transform="matrix(0.783513, 0, 0, 0.768586, -297.921182, -52.640375)" style="">
    <path style="opacity:1" fill="#4c8d5b" d="M 565.5,633.5 C 566.5,633.5 567.5,633.5 568.5,633.5C 567.221,637.302 564.888,640.469 561.5,643C 554.42,646.083 547.087,648.249 539.5,649.5C 539.33,648.178 539.663,647.011 540.5,646C 547.538,645.209 554.204,643.209 560.5,640C 562.539,638.074 564.206,635.907 565.5,633.5 Z"/>
  </g>
  <g transform="matrix(0.783513, 0, 0, 0.768586, -297.921182, -52.640375)" style="">
    <path style="opacity:1" fill="#3b9b51" d="M 655.5,655.5 C 652.883,654.214 650.55,652.547 648.5,650.5C 646.269,645.629 647.769,642.629 653,641.5C 658.167,642.667 663.333,643.833 668.5,645C 669.617,646.825 671.45,648.658 674,650.5C 676.099,649.534 677.932,648.2 679.5,646.5C 682.199,648.322 682.032,649.655 679,650.5C 678.667,650.167 678.333,649.833 678,649.5C 676.307,652.167 674.141,654.333 671.5,656C 669.567,656.783 668.067,656.283 667,654.5C 666.424,656.852 664.924,657.852 662.5,657.5C 660.068,657.114 657.734,656.447 655.5,655.5 Z"/>
  </g>
  <g transform="matrix(0.783513, 0, 0, 0.768586, -297.921182, -52.640375)" style="">
    <path style="opacity:1" fill="#3d9b53" d="M 797.5,597.5 C 799.716,598.203 801.549,599.536 803,601.5C 797.216,619.044 787.383,634.044 773.5,646.5C 772.85,646.196 772.183,645.863 771.5,645.5C 770.476,646.853 769.143,647.52 767.5,647.5C 767.5,648.5 767.5,649.5 767.5,650.5C 764.864,651.035 762.697,652.368 761,654.5C 760.667,653.5 760.333,652.5 760,651.5C 758.482,651.943 757.315,651.276 756.5,649.5C 755.494,649.938 755.494,650.604 756.5,651.5C 755.726,652.711 754.893,652.711 754,651.5C 753.626,652.416 753.126,653.25 752.5,654C 753.833,654.667 753.833,655.333 752.5,656C 753.167,656.333 753.833,656.667 754.5,657C 751.675,659.251 749.009,659.418 746.5,657.5C 744.249,659.115 742.916,658.448 742.5,655.5C 742.709,654.914 743.043,654.414 743.5,654C 742.207,653.51 740.873,653.343 739.5,653.5C 739.5,652.167 739.5,650.833 739.5,649.5C 741.199,649.66 742.866,649.494 744.5,649C 743.833,648.667 743.167,648.333 742.5,648C 743.833,647.667 745.167,647.333 746.5,647C 745.304,646.346 745.304,645.846 746.5,645.5C 751.473,646.943 751.806,646.11 747.5,643C 748.784,642.316 749.951,642.483 751,643.5C 752.588,638.948 755.755,636.115 760.5,635C 761.305,633.887 761.972,632.721 762.5,631.5C 770.102,626.691 777.769,621.858 785.5,617C 788.2,615.143 789.866,612.643 790.5,609.5C 792.847,605.468 795.18,601.468 797.5,597.5 Z"/>
  </g>
  <g transform="matrix(0.783513, 0, 0, 0.768586, -297.921182, -52.640375)" style="">
    <path style="opacity:1" fill="#10100f" d="M 972.5,635.5 C 980.281,639.351 980.281,643.684 972.5,648.5C 970.167,647.333 967.833,646.167 965.5,645C 964.167,643 964.167,641 965.5,639C 968.174,638.33 970.507,637.163 972.5,635.5 Z"/>
  </g>
  <g transform="matrix(0.783513, 0, 0, 0.768586, -297.921182, -52.640375)" style="">
    <path style="opacity:1" fill="#509960" d="M 893.5,635.5 C 902.574,635.99 911.574,636.99 920.5,638.5C 926.399,637.23 932.399,636.564 938.5,636.5C 932.825,638.749 926.825,640.082 920.5,640.5C 911.306,639.193 902.306,637.526 893.5,635.5 Z"/>
  </g>
  <g transform="matrix(0.783513, 0, 0, 0.768586, -297.921182, -52.640375)" style="">
    <path style="opacity:1" fill="#0d0e0d" d="M 864.5,634.5 C 865.552,634.351 866.552,634.517 867.5,635C 869.017,636.685 870.684,638.185 872.5,639.5C 873.484,642.428 873.817,645.428 873.5,648.5C 866.91,648.811 860.41,648.478 854,647.5C 853.5,646.5 853,645.5 852.5,644.5C 854.253,641.995 855.753,639.329 857,636.5C 859.607,635.877 862.107,635.21 864.5,634.5 Z"/>
  </g>
  <g transform="matrix(0.783513, 0, 0, 0.768586, -297.921182, -52.640375)" style="">
    <path style="opacity:1" fill="#419955" d="M 972.5,588.5 C 973.734,590.66 975.067,592.827 976.5,595C 979.329,596.247 981.995,597.747 984.5,599.5C 983.687,600.814 982.687,601.981 981.5,603C 982.814,605.312 984.481,607.312 986.5,609C 977.265,616.975 967.932,624.975 958.5,633C 952.555,634.491 946.555,635.657 940.5,636.5C 941.681,634.933 943.347,634.099 945.5,634C 941.175,632.197 936.509,630.197 931.5,628C 929.531,623.573 927.697,623.739 926,628.5C 924.16,627.167 923.66,627.334 924.5,629C 922.494,631.048 921.494,630.548 921.5,627.5C 919.007,627.329 917.174,628.329 916,630.5C 913.457,629.124 913.291,627.957 915.5,627C 910.974,625.447 906.474,623.947 902,622.5C 899.753,624.155 897.42,624.488 895,623.5C 894.667,624.167 894.333,624.833 894,625.5C 892.359,624.389 891.025,622.389 890,619.5C 889.667,620.167 889.333,620.833 889,621.5C 888.632,620.09 887.799,619.09 886.5,618.5C 885.571,617.311 885.238,615.978 885.5,614.5C 886.158,615.398 886.824,616.398 887.5,617.5C 888.293,617.069 889.127,616.735 890,616.5C 891.663,618.328 893.496,619.995 895.5,621.5C 897.607,620.363 899.773,619.363 902,618.5C 903.663,620.328 905.496,621.995 907.5,623.5C 909.523,622.46 911.523,621.46 913.5,620.5C 915.833,621.833 918.167,623.167 920.5,624.5C 923.364,623.793 925.864,622.459 928,620.5C 929.72,621.723 931.553,622.723 933.5,623.5C 935.833,622.167 938.167,620.833 940.5,619.5C 943.028,620.942 945.695,621.442 948.5,621C 949.257,619.488 950.257,618.154 951.5,617C 954.188,616.608 956.855,616.108 959.5,615.5C 961.89,617.126 963.223,616.459 963.5,613.5C 964.667,612.185 966.167,611.519 968,611.5C 970.472,612.322 972.972,612.989 975.5,613.5C 975.5,611.5 975.5,609.5 975.5,607.5C 969.839,606.342 965.173,607.842 961.5,612C 959.942,612.21 958.609,612.71 957.5,613.5C 957.44,614.043 957.107,614.376 956.5,614.5C 955.359,612.579 955.192,610.579 956,608.5C 962.711,602.692 968.211,596.026 972.5,588.5 Z"/>
  </g>
  <g transform="matrix(0.783513, 0, 0, 0.768586, -297.921182, -52.640375)" style="">
    <path style="opacity:1" fill="#3f9d54" d="M 867.5,591.5 C 872.785,596.383 878.285,601.05 884,605.5C 885.149,608.393 885.649,611.393 885.5,614.5C 885.238,615.978 885.571,617.311 886.5,618.5C 887.799,619.09 888.632,620.09 889,621.5C 889.333,620.833 889.667,620.167 890,619.5C 891.025,622.389 892.359,624.389 894,625.5C 894.333,624.833 894.667,624.167 895,623.5C 897.42,624.488 899.753,624.155 902,622.5C 906.474,623.947 910.974,625.447 915.5,627C 913.291,627.957 913.457,629.124 916,630.5C 917.174,628.329 919.007,627.329 921.5,627.5C 921.494,630.548 922.494,631.048 924.5,629C 923.66,627.334 924.16,627.167 926,628.5C 927.697,623.739 929.531,623.573 931.5,628C 936.509,630.197 941.175,632.197 945.5,634C 943.347,634.099 941.681,634.933 940.5,636.5C 939.833,636.5 939.167,636.5 938.5,636.5C 932.399,636.564 926.399,637.23 920.5,638.5C 911.574,636.99 902.574,635.99 893.5,635.5C 890.478,635.196 887.478,634.696 884.5,634C 874.167,625.667 863.833,617.333 853.5,609C 855.351,607.316 857.018,605.483 858.5,603.5C 857.5,602.167 856.5,600.833 855.5,599.5C 858.246,597.527 861.246,596.027 864.5,595C 865.636,593.855 866.636,592.688 867.5,591.5 Z"/>
  </g>
  <g transform="matrix(0.783513, 0, 0, 0.768586, -297.921182, -52.640375)" style="">
    <path style="opacity:1" fill="#0c2811" d="M 865.5,612.5 C 869.182,612.335 872.848,612.501 876.5,613C 873.13,615.078 869.463,615.911 865.5,615.5C 865.5,614.5 865.5,613.5 865.5,612.5 Z"/>
  </g>
  <g transform="matrix(0.783513, 0, 0, 0.768586, -297.921182, -52.640375)" style="">
    <path style="opacity:1" fill="#122615" d="M 963.5,613.5 C 961.5,613.5 959.5,613.5 957.5,613.5C 958.609,612.71 959.942,612.21 961.5,612C 965.173,607.842 969.839,606.342 975.5,607.5C 975.5,609.5 975.5,611.5 975.5,613.5C 972.972,612.989 970.472,612.322 968,611.5C 966.167,611.519 964.667,612.185 963.5,613.5 Z"/>
  </g>
  <g transform="matrix(0.783513, 0, 0, 0.768586, -297.921182, -52.640375)" style="">
    <path style="opacity:1" fill="#4c9659" d="M 961.5,584.5 C 961.5,585.833 961.5,587.167 961.5,588.5C 964.5,588.5 967.5,588.5 970.5,588.5C 966.458,592.54 962.791,596.873 959.5,601.5C 958.897,599.374 958.897,597.041 959.5,594.5C 959.322,590.878 959.989,587.544 961.5,584.5 Z"/>
  </g>
  <g transform="matrix(0.783513, 0, 0, 0.768586, -297.921182, -52.640375)" style="">
    <path style="opacity:1" fill="#010401" d="M 915.5,585.5 C 916.37,588.871 918.537,590.538 922,590.5C 933.489,588.734 944.989,587.234 956.5,586C 957.883,584.729 958.883,583.229 959.5,581.5C 960.167,581.5 960.833,581.5 961.5,581.5C 961.5,582.5 961.5,583.5 961.5,584.5C 959.989,587.544 959.322,590.878 959.5,594.5C 958.194,597.142 957.194,599.975 956.5,603C 957.998,603.585 958.998,603.085 959.5,601.5C 962.791,596.873 966.458,592.54 970.5,588.5C 971.167,587.167 971.833,587.167 972.5,588.5C 968.211,596.026 962.711,602.692 956,608.5C 955.192,610.579 955.359,612.579 956.5,614.5C 957.107,614.376 957.44,614.043 957.5,613.5C 959.5,613.5 961.5,613.5 963.5,613.5C 963.223,616.459 961.89,617.126 959.5,615.5C 956.855,616.108 954.188,616.608 951.5,617C 950.257,618.154 949.257,619.488 948.5,621C 945.695,621.442 943.028,620.942 940.5,619.5C 938.167,620.833 935.833,622.167 933.5,623.5C 931.553,622.723 929.72,621.723 928,620.5C 925.864,622.459 923.364,623.793 920.5,624.5C 918.167,623.167 915.833,621.833 913.5,620.5C 911.523,621.46 909.523,622.46 907.5,623.5C 905.496,621.995 903.663,620.328 902,618.5C 899.773,619.363 897.607,620.363 895.5,621.5C 893.496,619.995 891.663,618.328 890,616.5C 889.127,616.735 888.293,617.069 887.5,617.5C 886.824,616.398 886.158,615.398 885.5,614.5C 885.649,611.393 885.149,608.393 884,605.5C 878.285,601.05 872.785,596.383 867.5,591.5C 867.5,590.5 867.5,589.5 867.5,588.5C 868.5,588.5 869.5,588.5 870.5,588.5C 874.497,592.665 878.33,596.998 882,601.5C 882.283,596.962 881.449,592.629 879.5,588.5C 879.5,587.167 879.5,585.833 879.5,584.5C 879.414,583.504 879.748,582.671 880.5,582C 883.309,580.342 886.309,579.175 889.5,578.5C 894.212,582.044 899.212,582.377 904.5,579.5C 908.065,581.781 911.732,583.781 915.5,585.5 Z"/>
  </g>
  <g transform="matrix(0.783513, 0, 0, 0.768586, -297.921182, -52.640375)" style="">
    <path style="opacity:1" fill="#395f40" d="M 959.5,594.5 C 958.897,597.041 958.897,599.374 959.5,601.5C 958.998,603.085 957.998,603.585 956.5,603C 957.194,599.975 958.194,597.142 959.5,594.5 Z"/>
  </g>
  <g transform="matrix(0.783513, 0, 0, 0.768586, -297.921182, -52.640375)" style="">
    <path style="opacity:1" fill="#50995e" d="M 870.5,588.5 C 873.5,588.5 876.5,588.5 879.5,588.5C 881.449,592.629 882.283,596.962 882,601.5C 878.33,596.998 874.497,592.665 870.5,588.5 Z"/>
  </g>
  <g transform="matrix(0.783513, 0, 0, 0.768586, -297.921182, -52.640375)" style="">
    <path style="opacity:1" fill="#468956" d="M 959.5,581.5 C 958.883,583.229 957.883,584.729 956.5,586C 944.989,587.234 933.489,588.734 922,590.5C 918.537,590.538 916.37,588.871 915.5,585.5C 916.995,585.415 917.995,586.081 918.5,587.5C 923.467,588.662 928.467,588.829 933.5,588C 939.421,586.918 945.421,586.085 951.5,585.5C 953.167,584.833 954.833,584.167 956.5,583.5C 956.291,582.914 955.957,582.414 955.5,582C 956.793,581.51 958.127,581.343 959.5,581.5 Z"/>
  </g>
  <g transform="matrix(0.783513, 0, 0, 0.768586, -297.921182, -52.640375)" style="">
    <path style="opacity:1" fill="#3e9b52" d="M 961.5,581.5 C 960.833,581.5 960.167,581.5 959.5,581.5C 958.127,581.343 956.793,581.51 955.5,582C 955.957,582.414 956.291,582.914 956.5,583.5C 954.833,584.167 953.167,584.833 951.5,585.5C 945.421,586.085 939.421,586.918 933.5,588C 928.467,588.829 923.467,588.662 918.5,587.5C 917.995,586.081 916.995,585.415 915.5,585.5C 911.732,583.781 908.065,581.781 904.5,579.5C 899.212,582.377 894.212,582.044 889.5,578.5C 886.309,579.175 883.309,580.342 880.5,582C 879.748,582.671 879.414,583.504 879.5,584.5C 877.771,577.675 876.604,570.675 876,563.5C 880.179,560.743 884.179,557.743 888,554.5C 890.333,549.167 892.667,543.833 895,538.5C 896.725,537.536 898.559,536.869 900.5,536.5C 903.667,536.6 906.667,535.933 909.5,534.5C 909.833,534.833 910.167,535.167 910.5,535.5C 906.5,538.833 906.5,542.167 910.5,545.5C 914.739,544.518 916.072,542.185 914.5,538.5C 913.833,538.167 913.167,537.833 912.5,537.5C 912.5,535.833 912.5,534.167 912.5,532.5C 914.483,532.843 915.817,532.176 916.5,530.5C 918.742,527.239 920.075,523.572 920.5,519.5C 925.471,522.638 930.304,525.972 935,529.5C 935.498,532.482 935.665,535.482 935.5,538.5C 938.187,538.336 940.854,538.503 943.5,539C 947.633,542.131 951.466,545.631 955,549.5C 954.501,552.518 954.668,555.518 955.5,558.5C 958.484,560.984 961.318,563.65 964,566.5C 964.372,571.793 963.539,576.793 961.5,581.5 Z"/>
  </g>
  <g transform="matrix(0.783513, 0, 0, 0.768586, -297.921182, -52.640375)" style="">
    <path style="opacity:1" fill="#031304" d="M 933.5,572.5 C 936.91,572.384 938.244,574.05 937.5,577.5C 933.065,578.078 931.732,576.411 933.5,572.5 Z"/>
  </g>
  <g transform="matrix(0.783513, 0, 0, 0.768586, -297.921182, -52.640375)" style="">
    <path style="opacity:1" fill="#071b08" d="M 899.5,558.5 C 901.635,558.147 902.968,558.98 903.5,561C 901.595,563.931 899.595,564.097 897.5,561.5C 898.193,560.482 898.859,559.482 899.5,558.5 Z"/>
  </g>
  <g transform="matrix(0.783513, 0, 0, 0.768586, -297.921182, -52.640375)" style="">
    <path style="opacity:1" fill="#010b00" d="M 923.5,553.5 C 927.161,553.35 928.161,554.85 926.5,558C 922.707,558.487 921.707,556.987 923.5,553.5 Z"/>
  </g>
  <g transform="matrix(0.783513, 0, 0, 0.768586, -297.921182, -52.640375)" style="">
    <path style="opacity:1" fill="#061407" d="M 936.5,544.5 C 939.833,544.5 941.5,546.167 941.5,549.5C 939.833,549.5 938.167,549.5 936.5,549.5C 936.5,547.833 936.5,546.167 936.5,544.5 Z"/>
  </g>
  <g transform="matrix(0.783513, 0, 0, 0.768586, -297.921182, -52.640375)" style="">
    <path style="opacity:1" fill="#020b02" d="M 912.5,537.5 C 913.167,537.833 913.833,538.167 914.5,538.5C 914.824,541.68 913.49,542.847 910.5,542C 908.944,539.499 909.611,537.999 912.5,537.5 Z"/>
  </g>
  <g transform="matrix(0.783513, 0, 0, 0.768586, -297.921182, -52.640375)" style="">
    <path style="opacity:1" fill="#478f56" d="M 916.5,530.5 C 915.817,532.176 914.483,532.843 912.5,532.5C 912.5,534.167 912.5,535.833 912.5,537.5C 909.611,537.999 908.944,539.499 910.5,542C 913.49,542.847 914.824,541.68 914.5,538.5C 916.072,542.185 914.739,544.518 910.5,545.5C 906.5,542.167 906.5,538.833 910.5,535.5C 910.167,535.167 909.833,534.833 909.5,534.5C 906.667,535.933 903.667,536.6 900.5,536.5C 905.681,534.325 911.014,532.325 916.5,530.5 Z"/>
  </g>
  <g transform="matrix(0.783513, 0, 0, 0.768586, -297.921182, -52.640375)" style="">
    <path style="opacity:1" fill="#3e9352" d="M 762.5,631.5 C 761.972,632.721 761.305,633.887 760.5,635C 755.755,636.115 752.588,638.948 751,643.5C 749.951,642.483 748.784,642.316 747.5,643C 751.806,646.11 751.473,646.943 746.5,645.5C 745.304,645.846 745.304,646.346 746.5,647C 745.167,647.333 743.833,647.667 742.5,648C 743.167,648.333 743.833,648.667 744.5,649C 742.866,649.494 741.199,649.66 739.5,649.5C 739.5,650.833 739.5,652.167 739.5,653.5C 740.873,653.343 742.207,653.51 743.5,654C 743.043,654.414 742.709,654.914 742.5,655.5C 742.916,658.448 744.249,659.115 746.5,657.5C 749.009,659.418 751.675,659.251 754.5,657C 753.833,656.667 753.167,656.333 752.5,656C 753.833,655.333 753.833,654.667 752.5,654C 753.126,653.25 753.626,652.416 754,651.5C 754.893,652.711 755.726,652.711 756.5,651.5C 755.494,650.604 755.494,649.938 756.5,649.5C 757.315,651.276 758.482,651.943 760,651.5C 760.333,652.5 760.667,653.5 761,654.5C 762.697,652.368 764.864,651.035 767.5,650.5C 767.5,649.5 767.5,648.5 767.5,647.5C 769.143,647.52 770.476,646.853 771.5,645.5C 772.183,645.863 772.85,646.196 773.5,646.5C 765.709,654.903 756.376,661.069 745.5,665C 733.052,667.737 720.552,670.237 708,672.5C 701.169,671.668 694.669,670.001 688.5,667.5C 680.397,665.857 672.397,663.69 664.5,661C 660.819,660.128 657.819,658.294 655.5,655.5C 657.734,656.447 660.068,657.114 662.5,657.5C 664.924,657.852 666.424,656.852 667,654.5C 668.067,656.283 669.567,656.783 671.5,656C 674.141,654.333 676.307,652.167 678,649.5C 678.333,649.833 678.667,650.167 679,650.5C 682.032,649.655 682.199,648.322 679.5,646.5C 677.932,648.2 676.099,649.534 674,650.5C 671.45,648.658 669.617,646.825 668.5,645C 663.333,643.833 658.167,642.667 653,641.5C 647.769,642.629 646.269,645.629 648.5,650.5C 643.596,647.77 639.096,644.436 635,640.5C 635.437,638.243 635.937,635.91 636.5,633.5C 636.833,633.5 637.167,633.5 637.5,633.5C 644.875,636.796 652.542,639.629 660.5,642C 675.143,644.639 689.81,647.139 704.5,649.5C 717.172,647.066 729.838,644.566 742.5,642C 749.347,638.744 756.013,635.244 762.5,631.5 Z"/>
  </g>
  <g transform="matrix(0.783513, 0, 0, 0.768586, -297.921182, -52.640375)" style="">
    <path style="opacity:1" fill="#0f0f0d" d="M 896.5,643.5 C 899.069,644.396 901.069,646.062 902.5,648.5C 902.291,649.086 901.957,649.586 901.5,650C 898.854,650.497 896.187,650.664 893.5,650.5C 894.043,647.962 895.043,645.628 896.5,643.5 Z"/>
  </g>
  <g transform="matrix(0.783513, 0, 0, 0.768586, -297.921182, -52.640375)" style="">
    <path style="opacity:1" fill="#3c9b51" d="M 688.5,667.5 C 688.5,666.5 688.5,665.5 688.5,664.5C 685.951,663.491 683.285,662.658 680.5,662C 679.547,660.045 678.213,658.378 676.5,657C 677.025,656.308 677.692,655.808 678.5,655.5C 681.321,656.201 683.988,657.201 686.5,658.5C 687.167,658.333 687.833,658.167 688.5,658C 687.743,656.488 686.743,655.154 685.5,654C 688.288,652.136 690.121,652.969 691,656.5C 691.667,655.167 692.333,653.833 693,652.5C 695.093,653.246 697.093,653.579 699,653.5C 700.487,652.747 700.654,651.914 699.5,651C 710.836,649.47 722.17,647.97 733.5,646.5C 732.25,648.968 732.417,651.301 734,653.5C 734.561,652.978 735.228,652.645 736,652.5C 737.651,653.742 739.485,654.576 741.5,655C 740.833,655.333 740.167,655.667 739.5,656C 741.459,658.963 743.959,660.129 747,659.5C 747.692,660.025 748.192,660.692 748.5,661.5C 744.446,662.63 740.113,663.63 735.5,664.5C 735.762,663.022 735.429,661.689 734.5,660.5C 734.167,660.833 733.833,661.167 733.5,661.5C 734.309,663.071 734.643,664.738 734.5,666.5C 730.366,666.494 726.533,666.161 723,665.5C 722.535,666.931 721.701,668.097 720.5,669C 717.07,669.956 713.57,670.456 710,670.5C 702.873,669.296 695.706,668.296 688.5,667.5 Z"/>
  </g>
  <g transform="matrix(0.783513, 0, 0, 0.768586, -297.921182, -52.640375)" style="">
    <path style="opacity:1" fill="#599d67" d="M 952.5,647.5 C 955.621,648.288 957.288,650.288 957.5,653.5C 951.054,654.75 949.388,652.75 952.5,647.5 Z"/>
  </g>
  <g transform="matrix(0.783513, 0, 0, 0.768586, -297.921182, -52.640375)" style="">
    <path style="opacity:1" fill="#161715" d="M 883.5,656.5 C 886.669,656.662 888.669,658.328 889.5,661.5C 886.609,662.678 883.609,663.345 880.5,663.5C 880.15,660.547 881.15,658.213 883.5,656.5 Z"/>
  </g>
</svg>