<svg xmlns="http://www.w3.org/2000/svg" version="1.1" viewBox="78 370.6 1553 291.54">  <path d="M 900.45 441.76 C 902.73 441.75 905.01 441.72 907.29 441.69 C 915.59 441.63 923.11 442.16 931 445 C 932.09 445.38 933.19 445.75 934.31 446.14 C 945.81 450.89 954.51 456.94 963 466 C 963.85 466.78 964.69 467.57 965.56 468.38 C 980.63 484.6 984.44 501.99 984.48 523.38 C 984.49 525.13 984.51 526.88 984.52 528.63 C 984.57 533.2 984.59 537.76 984.61 542.33 C 984.65 549.67 984.71 557.01 984.77 564.36 C 984.79 566.92 984.8 569.48 984.81 572.04 C 984.82 573.59 984.83 575.15 984.84 576.71 C 984.84 577.42 984.84 578.14 984.85 578.87 C 984.83 582.56 984.83 582.56 986 586 C 991.03 578.46 991.3 571.51 991.29 562.72 C 991.3 561.6 991.3 560.48 991.31 559.33 C 991.33 555.65 991.33 551.97 991.34 548.29 C 991.34 545.73 991.35 543.16 991.36 540.59 C 991.37 535.22 991.37 529.84 991.37 524.46 C 991.37 518.27 991.39 512.07 991.42 505.88 C 991.45 499.89 991.46 493.91 991.46 487.93 C 991.46 485.4 991.47 482.86 991.48 480.33 C 991.5 476.77 991.5 473.22 991.49 469.67 C 991.5 468.64 991.51 467.6 991.52 466.53 C 991.46 459.54 989.91 454.31 987 448 C 986.67 447.01 986.34 446.02 986 445 C 993.47 444.95 1000.95 444.91 1008.42 444.89 C 1010.97 444.88 1013.51 444.87 1016.05 444.85 C 1019.71 444.83 1023.36 444.81 1027.02 444.8 C 1028.15 444.79 1029.29 444.78 1030.47 444.77 C 1032.06 444.77 1032.06 444.77 1033.68 444.77 C 1034.61 444.77 1035.55 444.76 1036.51 444.76 C 1039.18 445.02 1040.76 445.55 1043 447 C 1046.1 451.72 1046.51 455.91 1046.69 461.38 C 1046.72 462.11 1046.76 462.85 1046.79 463.61 C 1046.87 465.4 1046.94 467.2 1047 469 C 1051.56 467.61 1053.51 465.57 1056.37 461.81 C 1064.07 452.13 1070.97 446.01 1083 442 C 1095.57 440.95 1106.52 441.11 1117.25 448.13 C 1127.55 458.9 1130.13 472.75 1130.17 487.18 C 1130.18 488.09 1130.19 488.99 1130.19 489.93 C 1130.21 491.88 1130.22 493.84 1130.23 495.8 C 1130.25 498.9 1130.27 502 1130.29 505.11 C 1130.37 513.93 1130.43 522.75 1130.48 531.57 C 1130.51 536.97 1130.55 542.37 1130.6 547.77 C 1130.61 549.82 1130.63 551.88 1130.63 553.93 C 1130.65 556.81 1130.67 559.68 1130.7 562.56 C 1130.7 563.82 1130.7 563.82 1130.7 565.11 C 1130.81 574.01 1132.9 579.81 1137 588 C 1114.56 588 1092.12 588 1069 588 C 1070.32 585.69 1071.64 583.38 1073 581 C 1074.96 575.34 1075.3 569.52 1075.29 563.58 C 1075.3 562.79 1075.3 562 1075.31 561.19 C 1075.33 558.61 1075.33 556.04 1075.34 553.47 C 1075.34 551.66 1075.35 549.85 1075.36 548.05 C 1075.37 544.27 1075.37 540.5 1075.37 536.73 C 1075.37 531.91 1075.4 527.09 1075.43 522.27 C 1075.45 518.54 1075.46 514.81 1075.46 511.09 C 1075.46 509.31 1075.47 507.53 1075.48 505.76 C 1075.5 503.27 1075.5 500.78 1075.49 498.29 C 1075.5 497.57 1075.51 496.85 1075.52 496.1 C 1075.45 490.75 1074.07 486.42 1071 482 C 1067.25 479.5 1064.33 479.39 1060 480 C 1053.72 482.34 1051.74 485.48 1048.95 491.47 C 1047.12 496.36 1046.87 500.9 1046.84 506.11 C 1046.83 506.81 1046.83 507.5 1046.82 508.22 C 1046.81 510.52 1046.8 512.81 1046.8 515.11 C 1046.79 515.89 1046.79 516.68 1046.79 517.49 C 1046.77 521.67 1046.76 525.84 1046.76 530.02 C 1046.75 534.31 1046.73 538.59 1046.7 542.88 C 1046.68 546.2 1046.68 549.52 1046.68 552.84 C 1046.67 554.42 1046.67 556 1046.65 557.58 C 1046.56 569.02 1047.82 577.64 1053 588 C 1030.89 588 1008.78 588 986 588 C 986.99 589.98 987.98 591.96 989 594 C 989.3 595.198 989.599 596.397 989.906 597.625 L 966 597.71 C 966 597.475 966 597.239 966 597 C 964.68 597.04 964.68 597.04 963.33 597.08 C 960.04 597.17 956.75 597.23 953.46 597.27 C 952.04 597.3 950.62 597.33 949.19 597.38 C 947.15 597.44 945.1 597.47 943.05 597.49 C 941.2 597.53 941.2 597.53 939.32 597.57 C 935.07 596.84 933.65 595.32 931 592 C 930.67 591.01 930.34 590.02 930 589 C 928.93 588.53 927.85 588.05 926.75 587.56 C 921.21 584.69 919.9 578.57 918 573 C 912.1 573.38 909.39 574.85 905.06 578.81 C 900.6 582.77 896.51 585.68 891 588 C 889.7 588.59 889.7 588.59 888.37 589.19 C 877.5 592.91 864.44 592.33 853.98 587.75 C 845.55 582.81 839.19 575.47 836.42 566.04 C 834.04 554.57 835.51 541.68 840 531 C 840.33 530.15 840.65 529.29 840.99 528.41 C 844.35 520.64 850.11 514.9 856 509 C 856.97 508.01 856.97 508.01 857.96 507 C 861.328 503.817 865.014 500.986 868.929 498.464 C 869.288 498.644 869.644 498.822 870 499 C 871.07 498.41 872.11 497.84 873.15 497.27 C 876.21 495.44 879.27 493.87 882.54 492.46 C 883.23 492.18 883.9 491.9 884.56 491.62 C 891.5 488.72 898.52 486.7 905.81 484.88 C 909.28 484.08 912.69 483.32 916 482 C 918.89 479.42 919.83 478.04 920.46 474.25 C 920.43 473.29 920.4 472.36 920.38 471.44 C 920.32 467.72 919.89 465.22 918 462 C 917.832 461.984 917.665 461.969 917.498 461.955 C 915.569 458.245 913.212 455.809 909 454 C 899.78 452.44 892.66 454.89 885 460 C 878.04 465.47 873.03 472.8 867.74 479.81 C 857.68 493.11 857.68 493.11 851.25 495.25 C 848 495 848 495 845.83 493.36 C 843.51 490.36 843.48 488.68 843.47 484.91 C 843.46 483.15 843.46 483.15 843.45 481.34 C 843.47 480.12 843.48 478.89 843.5 477.63 C 843.48 476.41 843.47 475.19 843.45 473.93 C 843.5 462.86 843.5 462.86 848 458 C 848.52 457.43 849.04 456.86 849.57 456.28 C 863.85 443.97 882.29 441.81 900.45 441.76 Z M 891.75 508.75 C 891.15 509.86 890.58 510.93 890 512 C 885.61 519.06 884.68 525.23 884.51 533.43 C 884.51 534.58 884.5 535.7 884.5 536.81 C 884.45 545.41 884.93 551.45 889.81 558.69 C 893.04 562.1 895.7 564.75 900.54 565.28 C 906.61 565.35 909.74 564.68 914.48 560.62 C 919.48 555.28 920.46 548.62 920.48 541.56 C 920.46 540.51 920.44 539.49 920.43 538.47 C 920.42 536.28 920.41 534.08 920.4 531.89 C 920.36 528.46 920.31 525.02 920.3 521.59 C 920.29 519.33 920.28 517.08 920.26 514.82 C 920.25 513.72 920.25 512.66 920.24 511.6 C 920.23 510.53 920.22 509.5 920.22 508.47 C 920.2 507.01 920.2 507.01 920.18 505.58 C 920.16 504.05 920.11 502.52 920 501 C 918.84 498.68 918.1 497.54 916 496 C 905 494.96 898.41 500.61 891.75 508.75 Z" fill="#3AB170"></path>  <path d="M 664.152 381.54 C 666.642 384.85 666.552 387.69 666.502 391.67 C 666.502 392.84 666.502 392.84 666.512 394.03 C 666.532 396.63 666.512 399.24 666.502 401.84 C 666.502 403.71 666.512 405.58 666.512 407.45 C 666.522 411.47 666.522 415.5 666.512 419.52 C 666.502 425.89 666.512 432.25 666.532 438.62 C 666.562 450.99 666.562 463.37 666.562 475.74 C 666.562 491.47 666.572 507.2 666.612 522.93 C 666.622 529.26 666.622 535.58 666.612 541.91 C 666.612 545.85 666.612 549.79 666.632 553.73 C 666.632 555.56 666.622 557.38 666.622 559.2 C 666.572 569.86 667.092 578.32 672.002 588 C 664.402 588.13 656.802 588.21 649.202 588.27 C 646.622 588.3 644.032 588.33 641.452 588.38 C 637.732 588.44 634.012 588.47 630.302 588.49 C 629.142 588.51 627.992 588.54 626.802 588.57 C 618.772 588.57 618.772 588.57 614.812 585.64 C 610.872 579.9 610.732 574.73 611.002 568 C 607.692 571.2 604.652 574.54 601.622 578 C 594.202 586.23 587.492 590.36 576.262 591.32 C 567.242 591.7 559.422 590.44 551.002 587 C 549.822 586.53 549.822 586.53 548.612 586.04 C 534.462 579.27 525.492 565.03 520.192 550.87 C 516.452 540.24 515.592 530.16 515.622 518.94 C 515.622 518.25 515.622 517.57 515.622 516.86 C 515.672 501.34 518.182 488.09 525.002 474 C 525.572 472.82 525.572 472.82 526.152 471.62 C 532.932 458.56 542.832 448.87 556.712 443.69 C 567.782 440.35 581.732 440.14 592.212 445.22 C 596.132 447.72 599.672 450.62 603.082 453.78 C 604.632 455.24 604.632 455.24 607.002 457 C 607.992 456.67 608.982 456.34 610.002 456 C 610.072 450.56 610.132 445.11 610.162 439.67 C 610.182 437.82 610.202 435.97 610.222 434.12 C 610.262 431.45 610.282 428.78 610.292 426.12 C 610.312 424.88 610.312 424.88 610.342 423.63 C 610.342 418.66 609.732 415.31 607.002 411 C 605.022 409.27 605.022 409.27 602.812 408.12 C 602.092 407.72 601.382 407.31 600.642 406.88 C 600.102 406.59 599.562 406.3 599.002 406 C 600.032 402.92 600.922 402.04 603.772 400.37 C 604.942 399.85 606.102 399.33 607.312 398.79 C 608.262 398.36 608.262 398.36 609.232 397.92 C 611.292 397 613.362 396.09 615.442 395.19 C 616.852 394.56 618.272 393.93 619.682 393.3 C 657.352 376.68 657.352 376.68 664.152 381.54 Z M 581.343 468.403 C 570.303 479.943 569.713 496.893 569.723 511.953 C 569.743 514.222 569.753 516.503 569.743 518.783 C 569.663 532.873 569.803 546.703 577.873 558.813 C 582.393 563.463 585.553 565.263 592.063 565.433 C 597.513 565.433 600.783 564.123 604.733 560.343 C 611.123 552.263 611.123 552.263 611.333 532.783 C 611.333 531.513 611.333 530.273 611.333 529.043 C 611.353 525.663 611.373 522.283 611.373 518.913 C 611.373 515.423 611.383 511.933 611.413 508.443 C 611.443 505.693 611.453 502.943 611.463 500.193 C 611.463 498.193 611.463 498.193 611.463 496.223 C 611.513 491.453 611.493 486.753 611.003 482.003 C 609.333 474.503 607.963 469.053 601.813 464.313 C 594.313 460.813 587.353 463.323 581.343 468.403 Z" fill="#3AB170"></path>  <path d="M 820.125 422.563 C 825.295 423.143 827.625 425.173 831.005 429.003 C 834.865 434.433 836.415 439.503 836.355 446.103 C 836.005 448.003 836.005 448.003 833.685 450.443 C 823.295 456.483 809.095 452.763 798.155 449.873 C 796.595 449.443 796.595 449.443 795.005 449.003 C 795.755 449.403 796.505 449.803 797.275 450.213 C 808.145 456.253 816.785 463.103 823.005 474.003 C 823.375 474.633 823.755 475.273 824.145 475.923 C 831.265 488.833 832.345 506.453 828.745 520.693 C 823.435 537.213 814.115 549.903 798.555 557.943 C 795.725 559.353 792.875 560.703 790.005 562.003 C 789.175 562.373 788.345 562.753 787.495 563.132 C 783.425 564.553 779.225 564.893 774.965 565.443 C 771.825 565.833 771.825 565.833 769.005 568.003 C 768.745 570.583 768.745 570.583 769.005 573.003 C 772.455 574.453 775.885 575.583 779.505 576.553 C 781.065 576.973 781.065 576.973 782.665 577.413 C 783.765 577.713 784.865 578.003 786.005 578.313 C 817.055 586.923 817.055 586.923 825.905 600.983 C 829.265 607.173 828.955 615.093 827.315 621.793 C 822.715 634.093 814.605 640.403 803.125 646.033 C 790.485 651.783 777.225 652.473 763.565 652.443 C 762.475 652.443 762.475 652.443 761.375 652.443 C 736.865 652.363 708.855 646.653 690.625 629.063 C 684.525 622.683 680.785 616.423 679.505 607.563 C 680.315 601.743 683.625 598.963 688.025 595.323 C 693.295 591.413 698.975 588.273 704.745 585.183 C 705.475 584.803 706.195 584.413 706.935 584.023 C 715.185 579.713 722.605 577.632 732.005 579.003 C 735.065 580.663 735.405 581.693 737.005 585.003 C 737.615 589.683 737.215 592.663 735.505 597.003 C 732.545 605.163 732.695 615.573 735.685 623.683 C 738.665 629.913 742.675 633.343 749.005 636.003 C 751.755 636.313 754.195 636.473 756.935 636.443 C 757.645 636.433 758.355 636.433 759.085 636.433 C 764.565 636.283 767.695 635.273 772.005 632.003 C 772.655 632.003 773.315 632.003 774.005 632.003 C 774.685 630.673 775.345 629.343 776.005 628.003 C 776.535 627.053 777.075 626.103 777.625 625.123 C 781.255 616.423 779.445 606.123 776.175 597.613 C 767.825 579.103 743.025 571.853 725.665 564.393 C 707.475 556.463 690.885 545.853 682.705 527.023 C 676.575 510.593 677.345 492.823 684.625 476.873 C 687.875 470.713 692.065 465.873 697.005 461.003 C 697.795 460.173 697.795 460.173 698.605 459.333 C 713.215 445.363 734.205 441.803 753.565 441.873 C 755.065 441.873 755.065 441.873 756.595 441.863 C 761.855 441.873 766.805 442.213 772.005 443.003 C 784.405 443.843 795.205 444.013 805.185 435.753 C 809.085 432.093 812.565 428.083 816.005 424.003 C 817.005 423.003 817.005 423.003 820.125 422.563 Z M 739.5 463.12 C 729.32 484.99 729.27 518.37 735.81 541.4 C 736.21 542.63 736.61 543.81 737 545 C 739.49 552.52 742.77 559.1 750 563 C 754.81 564 758.79 563.57 763 561 C 774.41 547.25 776.43 530.18 776.31 512.93 C 776.28 510.51 776.25 508.1 776.24 505.68 C 776.22 495.32 776.51 484.71 773.81 474.62 C 771.32 466.12 768.02 456.56 760 452 C 749.48 449.07 744.54 454.29 739.5 463.12 Z" fill="#3AB170"></path>  <path d="M 1215 445 C 1231.12 444.95 1247.23 444.92 1263.35 444.9 C 1270.83 444.89 1278.31 444.87 1285.8 444.85 C 1292.32 444.83 1298.84 444.82 1305.36 444.81 C 1308.81 444.81 1312.26 444.8 1315.72 444.79 C 1319.57 444.77 1323.42 444.77 1327.28 444.77 C 1328.43 444.77 1329.57 444.76 1330.76 444.75 C 1332.33 444.76 1332.33 444.76 1333.93 444.76 C 1334.84 444.76 1335.76 444.76 1336.69 444.75 C 1339 445 1339 445 1342 447 C 1343.15 452.06 1342.42 456.92 1340.06 461.5 C 1334.54 470.27 1326.7 477.38 1319.44 484.69 C 1318.73 485.4 1318.02 486.11 1317.29 486.85 C 1313.26 490.86 1309.14 494.71 1304.81 498.41 C 1301.72 501.12 1298.88 504.07 1296 507 C 1295.2 507.78 1294.39 508.57 1293.56 509.38 C 1285.25 517.89 1278.03 525.4 1276.75 537.64 C 1277.1 540.94 1277.83 542.45 1280 545 C 1283.11 545.49 1285.66 545.65 1288.76 545.59 C 1289.63 545.59 1290.49 545.59 1291.38 545.59 C 1293.21 545.59 1295.05 545.57 1296.88 545.54 C 1299.66 545.5 1302.44 545.5 1305.22 545.51 C 1307.01 545.5 1308.79 545.48 1310.57 545.47 C 1311.81 545.47 1311.81 545.47 1313.07 545.47 C 1320.12 545.33 1326.63 543.97 1331.75 538.75 C 1333.36 537.11 1333.36 537.11 1335 536 C 1336.98 536.5 1336.98 536.5 1339 537 C 1339.49 542.44 1339.49 542.44 1340 548 C 1341.98 546.51 1341.98 546.51 1344 545 C 1346.25 545.31 1346.25 545.31 1348 546 C 1348.03 552.64 1348.04 559.28 1348.05 565.92 C 1348.06 568.17 1348.07 570.43 1348.08 572.69 C 1348.09 575.94 1348.09 579.18 1348.1 582.43 C 1348.1 583.44 1348.11 584.45 1348.11 585.49 C 1348.11 586.43 1348.11 587.38 1348.11 588.34 C 1348.12 589.17 1348.12 590 1348.12 590.85 C 1348 593 1348 593 1347 596 C 1343.77 597.61 1340.25 597.12 1336.71 597.1 C 1335.48 597.1 1335.48 597.1 1334.23 597.09 C 1331.61 597.09 1328.99 597.08 1326.38 597.06 C 1324.6 597.06 1322.83 597.05 1321.05 597.05 C 1316.7 597.04 1312.35 597.02 1308 597 C 1307.94 597.323 1307.88 597.648 1307.83 597.976 L 1249 598.338 C 1249 597.897 1249 597.453 1249 597 C 1247.03 597.09 1247.03 597.09 1245.02 597.18 C 1243.28 597.22 1241.55 597.27 1239.81 597.31 C 1238.52 597.38 1238.52 597.38 1237.19 597.44 C 1232.65 597.53 1230.66 597.51 1226.95 594.67 C 1225 592 1225 592 1224 589 C 1222.36 587.96 1220.69 586.96 1219 586 C 1215.8 583.51 1215.07 580.86 1214 577 C 1212.78 564.2 1214.39 553.98 1222.19 543.38 C 1223.43 541.9 1224.71 540.44 1226 539 C 1226.68 538.22 1227.37 537.45 1228.07 536.64 C 1240.74 523.12 1257.21 514.32 1273.28 505.5 C 1277.26 503.31 1281.22 501.09 1285.19 498.88 C 1285.83 498.52 1286.47 498.17 1287.13 497.8 C 1291.86 495.3 1291.86 495.3 1296 492 C 1296.13 489.43 1296.13 489.43 1296 487 C 1287.66 486.91 1279.33 486.84 1270.99 486.79 C 1267.12 486.77 1263.25 486.74 1259.37 486.7 C 1255.63 486.65 1251.89 486.63 1248.15 486.62 C 1246.73 486.61 1245.31 486.6 1243.88 486.58 C 1235.72 486.46 1230.01 486.71 1223 491 C 1219.62 491.44 1219.62 491.44 1217 491 C 1214.92 487.89 1214.75 487.24 1214.77 483.71 C 1214.77 482.85 1214.77 481.99 1214.77 481.1 C 1214.78 480.18 1214.79 479.25 1214.8 478.3 C 1214.81 477.35 1214.81 476.4 1214.81 475.42 C 1214.82 472.38 1214.85 469.35 1214.88 466.31 C 1214.89 464.25 1214.89 462.2 1214.9 460.14 C 1214.92 455.09 1214.96 450.05 1215 445 Z" fill="#3AB270"></path>  <path d="M 1459.56 451.438 C 1461.06 452.598 1462.55 453.778 1464 454.998 C 1464.94 455.778 1464.94 455.778 1465.91 456.578 C 1475.8 465.558 1481.03 478.598 1482.38 491.688 C 1482.65 500.028 1481.77 506.448 1476.37 512.958 C 1466.3 522.908 1452 523.158 1438.72 523.097 C 1437.55 523.097 1436.39 523.097 1435.19 523.097 C 1431.48 523.088 1427.77 523.078 1424.06 523.058 C 1421.54 523.058 1419.02 523.058 1416.5 523.048 C 1410.33 523.038 1404.16 523.018 1398 522.997 C 1398.4 527.878 1398.4 527.878 1400.61 532.078 C 1412.95 541.538 1426.81 548.618 1442 551.998 C 1442.64 552.188 1443.27 552.378 1443.93 552.568 C 1453.03 554.458 1462.94 553.738 1471 548.998 C 1472.13 548.118 1473.24 547.198 1474.31 546.248 C 1477 543.998 1477 543.998 1479.81 543.628 C 1482 543.998 1482 543.998 1483 544.998 C 1483.14 548.838 1483.17 552.328 1482 555.998 C 1482.55 555.507 1483.11 555.007 1483.68 554.498 C 1486.39 552.748 1487.83 552.658 1491 552.998 C 1492 553.998 1492 553.998 1492.37 557.318 C 1492.19 567.678 1485.93 576.778 1479 583.998 C 1473.099 589.657 1466.964 593.169 1459.594 596.033 C 1454.946 595.162 1449.216 595.092 1445.72 594.655 C 1440.244 593.971 1434.876 593.893 1429.334 593.893 C 1421.465 593.893 1413.595 593.893 1405.726 593.893 C 1405.727 593.892 1405.728 593.891 1405.728 593.89 C 1405.765 593.848 1405.803 593.805 1405.842 593.763 C 1405.862 593.742 1405.881 593.721 1405.901 593.7 C 1405.911 593.69 1405.921 593.679 1405.931 593.669 C 1405.936 593.664 1405.941 593.659 1405.946 593.653 C 1405.869 593.731 1405.795 593.811 1405.724 593.892 C 1405.262 593.892 1404.8 593.892 1404.337 593.892 C 1393.351 588.999 1383.546 582.434 1375.807 573.077 C 1373.847 570.827 1371.737 568.847 1369.557 566.817 C 1357.087 554.517 1351.077 537.917 1350.637 520.637 C 1350.487 498.267 1356.967 476.747 1372.627 460.247 C 1395.217 438.837 1433.437 434.257 1459.557 451.437 Z M 1383.02 467.3 C 1378.74 471.07 1374.48 474.52 1373.66 480.47 C 1373.33 490.18 1375.79 499.42 1382 507 C 1387.46 512.1 1392.85 512.56 1400.11 512.49 C 1401.34 512.45 1402.55 512.41 1403.75 512.38 C 1408.88 512.32 1414.15 512.61 1419.18 511.53 C 1419.8 511.35 1420.4 511.18 1421 511 C 1426.59 509.61 1433.14 508.63 1437.31 504.38 C 1440.08 498.83 1439.57 493.83 1438.38 487.88 C 1433.43 477.54 1425.11 470.61 1414.39 466.78 C 1413.58 466.51 1412.79 466.26 1412 466 C 1403.03 462.86 1391.25 461.9 1383.02 467.3 Z" fill="#3AB170"></path>  <path d="M 1405.725 593.893 C 1405.596 594.041 1405.481 594.194 1405.378 594.349 C 1405.03 594.198 1404.684 594.046 1404.339 593.893 C 1404.801 593.893 1405.263 593.893 1405.725 593.893 Z" fill="#3AB170"></path>  <path d="M 475.875 454.813 C 477.605 456.183 479.315 457.573 480.995 459.003 C 481.835 459.693 482.675 460.383 483.545 461.103 C 496.495 472.803 504.185 490.033 505.125 507.323 C 505.895 531.613 498.715 551.993 481.995 570.003 C 465.715 585.033 446.645 591.743 424.745 591.243 C 409.165 590.613 393.705 584.463 381.995 574.003 C 381.415 573.483 380.825 572.963 380.215 572.423 C 366.975 559.963 358.445 542.223 357.765 524.063 C 357.305 501.413 362.675 483.083 377.995 466.003 C 378.515 465.393 379.035 464.783 379.565 464.153 C 403.875 437.403 446.965 434.623 475.875 454.813 Z M 413.23 458.195 C 400.68 476.685 403.72 503.065 407.59 523.815 C 407.73 524.555 407.86 525.275 408 526.005 C 410.89 541.975 415.48 557.915 424.88 571.375 C 428.92 576.425 433.15 580.565 439.69 581.565 C 444.07 580.815 446.46 579.935 449.28 576.395 C 460.17 559.285 458.52 535.435 456.3 516.245 C 453.4 494.905 447.81 468.725 430 454.625 C 422.62 450.625 418.32 451.675 413.23 458.195 Z" fill="#3AB170"></path>  <path d="M 317.875 454.813 C 319.605 456.183 321.315 457.573 322.995 459.003 C 323.835 459.693 324.675 460.383 325.545 461.103 C 338.495 472.803 346.185 490.033 347.125 507.323 C 347.895 531.613 340.715 551.993 323.995 570.003 C 307.715 585.033 288.645 591.743 266.745 591.243 C 251.165 590.613 235.705 584.463 223.995 574.003 C 223.415 573.483 222.825 572.963 222.215 572.423 C 208.975 559.963 200.445 542.223 199.765 524.063 C 199.305 501.413 204.675 483.083 219.995 466.003 C 220.515 465.393 221.035 464.783 221.565 464.153 C 245.875 437.403 288.965 434.623 317.875 454.813 Z M 255.23 458.195 C 242.68 476.685 245.72 503.065 249.59 523.815 C 249.73 524.555 249.86 525.275 250 526.005 C 252.89 541.975 257.48 557.915 266.88 571.375 C 270.92 576.425 275.15 580.565 281.69 581.565 C 286.07 580.815 288.46 579.935 291.28 576.395 C 302.17 559.285 300.52 535.435 298.3 516.245 C 295.4 494.905 289.81 468.725 272 454.625 C 264.62 450.625 260.32 451.675 255.23 458.195 Z" fill="#3AB170"></path>  <path d="M 1109.94 443.688 C 1118.58 448.118 1123.82 454.768 1127.01 463.888 C 1129.2 471.688 1130.15 479.097 1130.18 487.188 C 1130.18 488.088 1130.19 488.998 1130.2 489.928 C 1130.21 491.888 1130.22 493.838 1130.23 495.798 C 1130.25 498.898 1130.27 502.008 1130.3 505.108 C 1130.37 513.928 1130.43 522.747 1130.48 531.568 C 1130.51 536.968 1130.55 542.368 1130.6 547.768 C 1130.62 549.828 1130.63 551.878 1130.64 553.928 C 1130.65 556.808 1130.67 559.678 1130.7 562.558 C 1130.7 563.398 1130.7 564.238 1130.7 565.108 C 1130.81 574.007 1132.91 579.808 1137 587.998 C 1114.56 587.998 1092.12 587.998 1069 587.998 C 1070.32 585.688 1071.64 583.378 1073 580.998 C 1074.97 575.338 1075.3 569.528 1075.29 563.578 C 1075.3 562.788 1075.31 561.998 1075.31 561.188 C 1075.33 558.618 1075.34 556.038 1075.34 553.468 C 1075.34 551.658 1075.35 549.848 1075.36 548.048 C 1075.37 544.268 1075.37 540.498 1075.37 536.728 C 1075.37 531.908 1075.4 527.088 1075.43 522.268 C 1075.46 518.538 1075.46 514.818 1075.46 511.088 C 1075.46 509.308 1075.47 507.538 1075.49 505.758 C 1075.51 503.268 1075.5 500.778 1075.49 498.298 C 1075.5 497.568 1075.51 496.847 1075.52 496.097 C 1075.46 490.758 1074.08 486.418 1071 481.998 C 1067.26 479.508 1064.33 479.398 1060 479.998 C 1053.72 482.347 1051.74 485.478 1048.95 491.468 C 1047.12 496.358 1046.87 500.908 1046.84 506.108 C 1046.84 506.808 1046.83 507.508 1046.83 508.218 C 1046.81 510.518 1046.8 512.808 1046.8 515.107 C 1046.8 515.898 1046.79 516.678 1046.79 517.497 C 1046.78 521.668 1046.77 525.848 1046.76 530.018 C 1046.76 534.308 1046.73 538.598 1046.7 542.888 C 1046.69 546.198 1046.68 549.518 1046.68 552.838 C 1046.68 554.418 1046.67 555.998 1046.65 557.578 C 1046.57 569.018 1047.82 577.648 1053 587.998 C 1030.56 587.998 1008.12 587.998 984.998 587.998 C 986.318 585.688 987.638 583.378 988.998 580.998 C 991.318 574.918 991.298 569.138 991.288 562.718 C 991.298 561.598 991.308 560.488 991.308 559.338 C 991.328 555.658 991.338 551.978 991.338 548.298 C 991.338 545.728 991.348 543.158 991.358 540.598 C 991.368 535.218 991.368 529.838 991.368 524.458 C 991.368 518.268 991.388 512.068 991.418 505.878 C 991.448 499.898 991.458 493.908 991.458 487.928 C 991.458 485.398 991.468 482.858 991.488 480.328 C 991.507 476.778 991.498 473.228 991.488 469.678 C 991.498 468.638 991.507 467.598 991.518 466.528 C 991.458 459.538 989.918 454.318 986.998 447.998 C 986.668 447.008 986.338 446.018 985.998 444.998 C 993.478 444.948 1000.95 444.918 1008.43 444.888 C 1010.97 444.878 1013.51 444.868 1016.06 444.848 C 1019.71 444.828 1023.36 444.818 1027.02 444.808 C 1028.16 444.798 1029.3 444.788 1030.47 444.778 C 1032.06 444.778 1032.06 444.778 1033.68 444.778 C 1035.08 444.768 1035.08 444.768 1036.51 444.758 C 1039.18 445.018 1040.76 445.548 1043 446.998 C 1046.1 451.718 1046.52 455.908 1046.69 461.378 C 1046.72 462.108 1046.76 462.848 1046.79 463.608 C 1046.88 465.408 1046.94 467.198 1047 468.998 C 1051.57 467.618 1053.51 465.568 1056.38 461.808 C 1069.34 445.508 1088.87 435.648 1109.94 443.688 Z" fill="#3AB270"></path>  <path d="M 78 383 C 125.19 383 172.38 383 221 383 C 221 437 221 437 219 440 C 212.88 439.88 212.88 439.88 210.55 437.55 C 209.88 436.66 209.88 436.66 209.19 435.75 C 205.07 430.35 198.63 427.27 192 426 C 189.3 425.9 186.62 425.84 183.91 425.84 C 183.1 425.83 182.29 425.83 181.45 425.82 C 178.77 425.81 176.09 425.8 173.41 425.8 C 171.54 425.79 169.68 425.79 167.81 425.78 C 163.9 425.77 159.99 425.76 156.08 425.76 C 151.08 425.75 146.07 425.73 141.06 425.7 C 137.21 425.68 133.35 425.68 129.5 425.68 C 127.66 425.67 125.81 425.67 123.96 425.65 C 121.38 425.64 118.8 425.64 116.22 425.64 C 115.45 425.63 114.69 425.63 113.91 425.62 C 109.42 425.65 106.56 426.21 103 429 C 98.65 434.74 98.49 439.39 98.75 446.44 C 98.78 447.82 98.78 447.82 98.8 449.23 C 98.85 451.49 98.92 453.74 99 456 C 103.21 455.47 106.19 454.5 109.88 452.44 C 119.35 448.03 129.43 448.87 139.19 451.94 C 148.26 455.3 157.12 459.23 165.97 463.14 C 169.75 464.74 172.78 465.19 176.88 465.25 C 177.9 465.28 178.93 465.3 179.99 465.33 C 184.08 464.88 186.77 463.38 189.5 460.31 C 191 459 191 459 193.56 458.62 C 194.37 458.75 195.17 458.87 196 459 C 199.84 464.75 198.63 474.02 197.57 480.74 C 195.02 489.61 188.84 495.97 181.21 500.81 C 172.43 505.54 161.43 505.79 151.78 503.46 C 138.38 498.95 128.7 487.86 119.07 478.03 C 118.46 477.41 117.85 476.79 117.22 476.16 C 116.69 475.61 116.15 475.06 115.59 474.49 C 111.82 470.97 108.37 469.11 103.12 468.69 C 100.14 468.65 100.14 468.65 99 470 C 97.6 484.37 101.7 498.81 110.72 510.16 C 112.13 511.79 113.57 513.39 115 515 C 115 515.66 115 516.32 115 517 C 115.57 517.24 116.14 517.49 116.73 517.74 C 119.4 519.23 121.14 520.98 123.25 523.19 C 126.06 526.07 128.88 528.83 131.94 531.44 C 133.29 532.62 134.65 533.81 136 535 C 137.24 536.09 137.24 536.09 138.51 537.2 C 146.81 544.9 152.04 553.03 152.66 564.52 C 152.76 571.83 152.06 578.36 147 584 C 143.2 587.58 140.94 588.5 135.74 588.45 C 134.5 588.45 133.26 588.45 131.98 588.45 C 130.64 588.43 129.29 588.41 127.95 588.39 C 126.57 588.38 125.18 588.38 123.8 588.37 C 120.17 588.36 116.54 588.32 112.92 588.27 C 109.21 588.23 105.5 588.22 101.79 588.2 C 94.53 588.15 87.26 588.08 80 588 C 80.35 587.26 80.7 586.53 81.06 585.77 C 81.51 584.79 81.97 583.82 82.44 582.81 C 82.89 581.85 83.34 580.89 83.81 579.89 C 85.88 574.86 86.13 570.31 86.14 564.89 C 86.14 564.19 86.15 563.48 86.15 562.76 C 86.16 560.4 86.16 558.05 86.16 555.69 C 86.17 554 86.17 552.31 86.18 550.62 C 86.19 546.03 86.2 541.44 86.2 536.86 C 86.2 533.99 86.21 531.12 86.21 528.25 C 86.23 519.27 86.24 510.28 86.24 501.3 C 86.24 490.94 86.26 480.59 86.29 470.23 C 86.31 462.21 86.32 454.2 86.32 446.19 C 86.32 441.4 86.33 436.62 86.35 431.84 C 86.36 427.34 86.37 422.84 86.36 418.33 C 86.36 416.69 86.36 415.04 86.37 413.39 C 86.42 405.08 86.3 397.79 83 390 C 82.67 389.01 82.34 388.02 82 387 C 81.67 386.34 81.34 385.68 81 385 C 80.01 384.67 79.02 384.34 78 384 C 78 383.67 78 383.34 78 383 Z" fill="#3AB170"></path>  <path d="M 1618.88 447.391 C 1620.32 448.871 1620.32 448.871 1621.99 452.001 C 1621.67 456.941 1619.82 460.951 1617.62 465.301 C 1617.28 465.991 1616.93 466.671 1616.59 467.371 C 1615.87 468.811 1615.14 470.251 1614.41 471.681 C 1613.33 473.861 1612.24 476.031 1611.16 478.211 C 1602.02 496.571 1602.02 496.571 1596.38 499.251 C 1593.99 499.001 1593.99 499.001 1592.07 497.561 C 1589.8 494.741 1587.64 491.861 1585.57 488.901 C 1581.88 484.431 1577.6 482.511 1571.89 481.701 C 1566.61 481.371 1563.07 482.401 1558.72 485.431 C 1555.18 488.641 1553.51 492.491 1551.99 497.001 C 1551.88 499.491 1551.84 501.961 1551.83 504.451 C 1551.82 505.211 1551.81 505.961 1551.81 506.741 C 1551.79 509.251 1551.78 511.751 1551.77 514.261 C 1551.76 515.111 1551.76 515.971 1551.74 516.861 C 1551.72 521.401 1551.71 525.941 1551.7 530.481 C 1551.69 535.161 1551.65 539.841 1551.62 544.511 C 1551.6 548.121 1551.59 551.731 1551.59 555.341 C 1551.58 557.061 1551.57 558.791 1551.55 560.511 C 1551.4 573.261 1551.4 573.261 1555.99 585.001 C 1556.33 585.991 1556.66 586.981 1556.99 588.001 C 1534.56 588.001 1512.12 588.001 1488.99 588.001 C 1490.98 584.041 1492.96 580.081 1494.99 576.001 C 1495.54 571.731 1495.8 568.081 1495.72 563.841 C 1495.73 562.691 1495.74 561.541 1495.74 560.361 C 1495.76 556.601 1495.72 552.841 1495.69 549.081 C 1495.68 546.451 1495.68 543.811 1495.68 541.181 C 1495.68 535.691 1495.65 530.191 1495.62 524.691 C 1495.58 518.351 1495.56 512.021 1495.56 505.681 C 1495.56 499.551 1495.55 493.431 1495.52 487.301 C 1495.51 484.711 1495.51 482.111 1495.51 479.521 C 1495.49 475.891 1495.46 472.271 1495.43 468.641 C 1495.43 467.581 1495.43 466.511 1495.43 465.411 C 1495.34 457.641 1493.72 451.881 1489.99 445.001 C 1497.6 444.871 1505.19 444.791 1512.8 444.721 C 1515.38 444.701 1517.96 444.671 1520.56 444.621 C 1524.27 444.561 1527.98 444.531 1531.69 444.511 C 1533.43 444.471 1533.43 444.471 1535.2 444.431 C 1544.14 444.431 1544.14 444.431 1547.2 447.401 C 1550.23 451.781 1550.31 455.421 1550.57 460.621 C 1550.61 461.431 1550.64 462.231 1550.69 463.051 C 1550.8 465.041 1550.9 467.021 1550.99 469.001 C 1555.53 468.161 1556.68 466.131 1559.32 462.371 C 1565.94 453.211 1572.97 445.531 1584.31 442.351 C 1595.6 440.871 1609.34 440.311 1618.88 447.391 Z" fill="#3AB170"></path>  <path d="M 1200 442 C 1202.87 445.07 1203.38 447.17 1203.38 451.32 C 1203.39 452.4 1203.39 453.47 1203.4 454.58 C 1203.4 455.76 1203.39 456.94 1203.38 458.15 C 1203.39 459.4 1203.4 460.64 1203.4 461.92 C 1203.41 464.63 1203.42 467.33 1203.41 470.04 C 1203.4 474.32 1203.42 478.6 1203.44 482.89 C 1203.48 491.99 1203.49 501.09 1203.5 510.19 C 1203.51 520 1203.53 529.8 1203.57 539.61 C 1203.59 543.86 1203.59 548.11 1203.59 552.36 C 1203.58 555.64 1203.6 558.92 1203.62 562.2 C 1203.61 563.37 1203.6 564.54 1203.6 565.74 C 1203.66 574.2 1205.23 580.47 1209 588 C 1186.89 588 1164.78 588 1142 588 C 1142.99 586.02 1142.99 586.02 1144 584 C 1146.68 577.59 1147.44 571.87 1147.39 564.97 C 1147.39 564.01 1147.4 563.05 1147.4 562.06 C 1147.42 558.92 1147.41 555.78 1147.4 552.64 C 1147.4 550.45 1147.4 548.25 1147.41 546.06 C 1147.41 541.47 1147.41 536.88 1147.39 532.3 C 1147.37 526.42 1147.38 520.55 1147.4 514.67 C 1147.41 510.14 1147.41 505.62 1147.4 501.09 C 1147.4 498.92 1147.4 496.76 1147.41 494.59 C 1147.42 491.56 1147.4 488.54 1147.39 485.51 C 1147.39 484.62 1147.4 483.73 1147.41 482.8 C 1147.36 478.07 1147.14 474.8 1144 471 C 1141.43 469.65 1141.43 469.65 1139 469 C 1139.06 466.74 1139.06 466.74 1140 464 C 1142.36 462.46 1144.46 461.33 1147 460.19 C 1147.72 459.85 1148.43 459.51 1149.17 459.17 C 1150.68 458.46 1152.2 457.75 1153.72 457.06 C 1155.91 456.04 1158.08 454.99 1160.25 453.92 C 1190.64 439.01 1190.64 439.01 1200 442 Z" fill="#3AB170"></path>  <path d="M 1488.5 552.875 C 1491 552.995 1491 552.995 1492 553.995 C 1493.08 563.525 1488.98 571.775 1483.31 579.255 C 1475.82 587.975 1467.8 593.135 1457 596.995 C 1458.65 597.335 1460.3 597.655 1462 597.995 C 1462 598.161 1462 598.328 1462 598.494 L 1405.927 594.582 C 1396.661 590.616 1388.825 585.386 1381 578.995 C 1381.33 578.345 1381.66 577.675 1382 576.995 C 1383.4 577.795 1383.4 577.795 1384.82 578.605 C 1392.99 583.165 1400.86 586.745 1410 588.995 C 1410.74 589.195 1411.48 589.385 1412.24 589.585 C 1423.88 591.345 1436.91 590.995 1448 586.995 C 1449 586.655 1450 586.315 1451.04 585.965 C 1463.05 581.475 1471.42 573.985 1478 562.995 C 1478.63 561.475 1479.23 559.935 1479.75 558.375 C 1480.16 557.265 1480.58 556.145 1481 554.995 C 1483.02 554.355 1483.02 554.355 1485 553.995 C 1486 552.995 1486 552.995 1488.5 552.875 Z" fill="#0E1210"></path>  <path d="M 1193.77 376.098 C 1199.67 380.508 1203.06 387.048 1205 393.998 C 1206.07 404.468 1204.61 412.478 1198.88 421.248 C 1190.52 429.238 1182.9 431.388 1171.61 431.278 C 1164.25 430.708 1157.96 427.868 1152.54 422.848 C 1145.42 414.288 1144.18 404.758 1145 393.998 C 1146.8 386.358 1150.68 379.888 1157.25 375.498 C 1168.91 368.778 1182.26 368.958 1193.77 376.098 Z" fill="#3AB16F"></path>  <path d="M 666 389 C 669.38 389.31 669.38 389.31 673 390 C 675.44 393.66 675.28 396.36 675.25 400.59 C 675.25 401.37 675.26 402.15 675.26 402.95 C 675.27 405.58 675.26 408.2 675.26 410.82 C 675.26 412.7 675.26 414.58 675.27 416.46 C 675.27 420.5 675.28 424.55 675.27 428.6 C 675.27 435 675.29 441.41 675.3 447.81 C 675.35 466.03 675.37 484.24 675.38 502.45 C 675.38 512.51 675.4 522.57 675.44 532.62 C 675.46 538.98 675.46 545.35 675.45 551.71 C 675.45 555.67 675.46 559.64 675.48 563.61 C 675.48 565.44 675.48 567.28 675.47 569.11 C 675.35 582.07 675.35 582.07 680 594 C 680.33 594.99 680.66 595.98 681 597 C 673.4 597.13 665.8 597.21 658.2 597.27 C 655.62 597.3 653.03 597.33 650.45 597.38 C 646.73 597.44 643.02 597.47 639.3 597.49 C 638.15 597.51 636.99 597.54 635.8 597.57 C 627.8 597.57 627.8 597.57 623.79 594.72 C 622 592 622 592 621 588 C 637.5 587.67 654 587.34 671 587 C 669.68 584.36 668.36 581.72 667 579 C 666.01 575.03 665.86 571.51 665.88 567.46 C 665.88 566.69 665.88 565.93 665.88 565.15 C 665.88 562.59 665.88 560.03 665.89 557.47 C 665.89 555.64 665.89 553.81 665.89 551.97 C 665.89 546.99 665.89 542.01 665.9 537.04 C 665.9 531.83 665.91 526.63 665.91 521.43 C 665.91 511.58 665.92 501.72 665.93 491.87 C 665.94 480.65 665.94 469.44 665.95 458.22 C 665.96 435.15 665.98 412.07 666 389 Z" fill="#1D4C32"></path>  <path d="M 491 470 C 491.66 470 492.32 470 493 470 C 508.84 487.19 515.03 506.62 514.11 529.75 C 513.2 547.94 503.96 566.27 491 579 C 473.72 594.39 454.37 601.28 431.4 600.19 C 416.21 598.98 399.53 592.16 389 581 C 389 580.01 389 579.02 389 578 C 389.64 578.4 390.28 578.8 390.94 579.21 C 407.36 589.26 426.35 593.22 445.38 588.81 C 447.26 588.24 449.14 587.64 451 587 C 452.05 586.66 453.11 586.32 454.2 585.97 C 462.33 583.12 469.09 579.11 476 574 C 476.97 573.31 476.97 573.31 477.95 572.61 C 491.91 561.78 501.73 542.29 504 525 C 505.07 504.06 501.47 488.27 491 470 Z" fill="#1D4F34"></path>  <path d="M 333 470 C 333.66 470 334.32 470 335 470 C 350.84 487.19 357.03 506.62 356.11 529.75 C 355.2 547.94 345.96 566.27 333 579 C 315.72 594.39 296.37 601.28 273.4 600.19 C 258.21 598.98 241.53 592.16 231 581 C 231 580.01 231 579.02 231 578 C 231.64 578.4 232.28 578.8 232.94 579.21 C 249.36 589.26 268.35 593.22 287.38 588.81 C 289.26 588.24 291.14 587.64 293 587 C 294.05 586.66 295.11 586.32 296.2 585.97 C 304.33 583.12 311.09 579.11 318 574 C 318.97 573.31 318.97 573.31 319.95 572.61 C 333.91 561.78 343.73 542.29 346 525 C 347.07 504.06 343.47 488.27 333 470 Z" fill="#1D4F34"></path>  <path d="M 1203 451 C 1205.81 450.75 1205.81 450.75 1209 451 C 1211.96 453.97 1212.38 456.21 1212.38 460.32 C 1212.39 461.4 1212.39 462.47 1212.4 463.58 C 1212.4 464.76 1212.39 465.94 1212.38 467.15 C 1212.39 468.4 1212.4 469.64 1212.4 470.92 C 1212.41 473.63 1212.42 476.33 1212.41 479.04 C 1212.4 483.32 1212.42 487.6 1212.44 491.89 C 1212.48 500.99 1212.49 510.09 1212.5 519.19 C 1212.51 529 1212.53 538.8 1212.57 548.61 C 1212.59 552.86 1212.59 557.11 1212.59 561.36 C 1212.58 564.64 1212.6 567.92 1212.62 571.2 C 1212.61 572.37 1212.6 573.54 1212.6 574.74 C 1212.66 583.2 1214.23 589.47 1218 597 C 1195.89 597 1173.78 597 1151 597 C 1151.99 595.02 1151.99 595.02 1153 593 C 1153.66 591.35 1154.32 589.7 1155 588 C 1172.49 587.67 1189.98 587.34 1208 587 C 1206.68 584.36 1205.36 581.72 1204 579 C 1203.15 575.61 1202.88 573.24 1202.88 569.81 C 1202.88 568.76 1202.88 567.71 1202.88 566.63 C 1202.88 564.92 1202.88 564.92 1202.89 563.16 C 1202.89 561.95 1202.89 560.74 1202.89 559.5 C 1202.89 556.18 1202.89 552.87 1202.9 549.56 C 1202.9 546.09 1202.91 542.63 1202.91 539.16 C 1202.91 532.6 1202.92 526.04 1202.93 519.48 C 1202.94 512.02 1202.94 504.55 1202.95 497.08 C 1202.96 481.72 1202.98 466.36 1203 451 Z" fill="#1D4D33"></path>  <path d="M 912.5 454.625 C 918.06 459.352 920.337 464.225 920.517 471.375 C 920.577 472.775 920.37 472.775 920.43 474.215 C 919.84 478.055 910.678 464.748 905.807 463.913 C 901.934 463.367 897.645 465.868 894.122 469.047 C 881.878 480.096 863.713 499.823 863.138 499.994 C 861.378 500.419 857.908 500.868 856.624 500.649 C 855.889 500.506 852.381 498.97 852.112 497.915 C 851.929 496.751 851.957 496.578 851.808 495.045 C 852.579 494.727 853.841 493.701 854.599 493.277 C 860.819 489.267 865.03 482.335 869.5 476.505 C 879.48 463.475 894.386 446.25 912.5 454.625 Z" fill="#1E4F34"></path>  <path d="M 1576.41 481.723 C 1581.23 483.713 1584.7 485.953 1588 490.003 C 1588 490.663 1588 491.323 1588 492.003 C 1587.36 491.833 1586.72 491.673 1586.06 491.503 C 1580.51 490.593 1575.3 489.963 1570.19 492.683 C 1565 496.453 1562.69 499.863 1561 506.003 C 1560.81 508.633 1560.71 511.163 1560.71 513.793 C 1560.7 514.543 1560.7 515.303 1560.69 516.083 C 1560.67 518.573 1560.67 521.063 1560.66 523.553 C 1560.66 525.293 1560.65 527.033 1560.64 528.773 C 1560.63 532.423 1560.63 536.063 1560.63 539.713 C 1560.63 544.363 1560.6 549.013 1560.57 553.673 C 1560.55 557.263 1560.54 560.863 1560.54 564.453 C 1560.54 566.173 1560.53 567.883 1560.52 569.603 C 1560.44 578.473 1560.38 586.123 1565 594.003 C 1565.33 594.993 1565.66 595.983 1566 597.003 C 1543.56 597.003 1521.12 597.003 1498 597.003 C 1503 588.003 1503 588.003 1505.61 586.883 C 1506.54 586.883 1507.47 586.883 1508.43 586.883 C 1509.49 586.863 1510.55 586.853 1511.65 586.833 C 1512.78 586.853 1513.91 586.873 1515.08 586.903 C 1516.25 586.893 1517.42 586.883 1518.63 586.873 C 1522.36 586.853 1526.08 586.893 1529.81 586.933 C 1532.34 586.933 1534.87 586.923 1537.4 586.913 C 1543.6 586.893 1549.8 586.933 1556 587.003 C 1555.72 586.453 1555.45 585.913 1555.16 585.353 C 1554.8 584.643 1554.44 583.923 1554.06 583.183 C 1553.7 582.483 1553.34 581.773 1552.97 581.043 C 1550.97 576.833 1550.84 573.123 1550.82 568.553 C 1550.81 567.413 1550.81 567.413 1550.8 566.263 C 1550.78 563.753 1550.77 561.243 1550.76 558.743 C 1550.76 557.883 1550.75 557.023 1550.75 556.143 C 1550.73 551.603 1550.71 547.063 1550.7 542.513 C 1550.69 537.843 1550.66 533.163 1550.62 528.483 C 1550.59 524.873 1550.58 521.273 1550.58 517.663 C 1550.58 515.933 1550.56 514.213 1550.55 512.493 C 1550.35 493.023 1550.35 493.023 1556.45 486.443 C 1562.53 481.043 1568.57 479.373 1576.41 481.723 Z" fill="#1D4E33"></path>  <path d="M 1068 479 C 1072.01 481.35 1073.65 483.58 1075 488 C 1074.41 488.1 1073.82 488.2 1073.21 488.3 C 1068.18 489.25 1064.53 490.07 1061 494 C 1057.15 500.97 1055.88 507.19 1055.85 515.14 C 1055.85 515.84 1055.85 516.54 1055.84 517.26 C 1055.84 519.57 1055.83 521.87 1055.83 524.18 C 1055.83 525.79 1055.83 527.4 1055.82 529.01 C 1055.82 532.38 1055.81 535.75 1055.81 539.13 C 1055.81 543.43 1055.8 547.74 1055.78 552.05 C 1055.77 555.37 1055.77 558.7 1055.77 562.03 C 1055.77 563.61 1055.77 565.2 1055.76 566.79 C 1055.75 569.02 1055.75 571.24 1055.76 573.47 C 1055.76 574.73 1055.75 576 1055.75 577.3 C 1056.26 584.9 1058.5 589.99 1062 597 C 1039.56 597 1017.12 597 994 597 C 999 588 999 588 1001.61 586.88 C 1002.54 586.88 1003.47 586.88 1004.43 586.89 C 1005.49 586.87 1006.55 586.85 1007.65 586.83 C 1008.78 586.85 1009.91 586.88 1011.08 586.9 C 1012.25 586.89 1013.42 586.88 1014.63 586.87 C 1018.36 586.85 1022.08 586.89 1025.81 586.94 C 1028.34 586.93 1030.87 586.93 1033.4 586.92 C 1039.6 586.9 1045.8 586.93 1052 587 C 1051.38 586.01 1050.76 585.02 1050.12 584 C 1045.11 575.01 1045.69 565.61 1045.7 555.6 C 1045.7 554 1045.69 552.4 1045.69 550.8 C 1045.68 547.45 1045.68 544.1 1045.68 540.76 C 1045.69 536.49 1045.67 532.23 1045.65 527.96 C 1045.64 524.66 1045.63 521.35 1045.64 518.05 C 1045.64 516.48 1045.63 514.9 1045.62 513.33 C 1045.56 502.53 1045.59 491.65 1053 483 C 1057.78 479.1 1061.93 478.22 1068 479 Z" fill="#1E5035"></path>  <path d="M 1123 456 C 1123.66 456 1124.32 456 1125 456 C 1125 456.66 1125 457.32 1125 458 C 1125.6 458.24 1126.19 458.48 1126.81 458.72 C 1132.51 462.05 1135.12 469.67 1136.81 475.75 C 1138.57 482.85 1139.16 489.58 1139.21 496.86 C 1139.22 497.84 1139.23 498.81 1139.24 499.82 C 1139.27 503.03 1139.29 506.25 1139.32 509.46 C 1139.34 511.69 1139.36 513.93 1139.38 516.16 C 1139.43 522.03 1139.48 527.9 1139.53 533.77 C 1139.58 539.76 1139.64 545.75 1139.69 551.75 C 1139.8 563.5 1139.9 575.25 1140 587 C 1140.66 587.33 1141.32 587.66 1142 588 C 1143.05 590.31 1144.05 592.65 1145 595 C 1145.33 595.66 1145.66 596.32 1146 597 C 1123.56 597 1101.12 597 1078 597 C 1083 588 1083 588 1085.61 586.88 C 1086.54 586.88 1087.47 586.88 1088.43 586.89 C 1089.49 586.87 1090.55 586.85 1091.65 586.83 C 1093.35 586.86 1093.35 586.86 1095.08 586.9 C 1096.25 586.89 1097.42 586.88 1098.63 586.87 C 1102.36 586.85 1106.08 586.89 1109.81 586.94 C 1112.34 586.93 1114.87 586.93 1117.4 586.92 C 1123.6 586.9 1129.8 586.93 1136 587 C 1135.65 586.42 1135.3 585.84 1134.94 585.24 C 1134.49 584.46 1134.03 583.68 1133.56 582.88 C 1132.88 581.73 1132.88 581.73 1132.19 580.55 C 1129.57 574.94 1129.85 568.98 1129.84 562.91 C 1129.84 562.02 1129.83 561.12 1129.83 560.2 C 1129.82 558.26 1129.81 556.32 1129.8 554.39 C 1129.79 551.31 1129.77 548.23 1129.75 545.15 C 1129.69 536.39 1129.63 527.64 1129.6 518.89 C 1129.58 513.52 1129.54 508.16 1129.5 502.8 C 1129.48 500.77 1129.48 498.74 1129.47 496.71 C 1129.45 482.4 1128.62 469.38 1123 456 Z" fill="#1E4F34"></path>  <path d="M 1346.31 545.25 C 1346.87 545.5 1347.42 545.75 1348 546 C 1348.02 552.64 1348.04 559.28 1348.05 565.92 C 1348.06 568.17 1348.06 570.43 1348.07 572.69 C 1348.09 575.94 1348.09 579.18 1348.1 582.43 C 1348.1 583.44 1348.11 584.45 1348.11 585.49 C 1348.11 586.43 1348.11 587.38 1348.11 588.34 C 1348.11 589.17 1348.12 590 1348.12 590.85 C 1348 593 1348 593 1347 596 C 1344.6 597.2 1343.1 597.14 1340.42 597.15 C 1338.98 597.17 1338.98 597.17 1337.51 597.18 C 1336.45 597.18 1335.39 597.19 1334.29 597.19 C 1333.18 597.2 1332.07 597.21 1330.92 597.22 C 1327.22 597.24 1323.52 597.26 1319.82 597.27 C 1317.93 597.28 1317.93 597.28 1316 597.29 C 1310.7 597.31 1305.41 597.33 1300.11 597.34 C 1292.52 597.36 1284.93 597.39 1277.34 597.45 C 1271.36 597.49 1265.38 597.51 1259.39 597.51 C 1256.85 597.52 1254.31 597.54 1251.76 597.56 C 1248.2 597.59 1244.65 597.59 1241.09 597.58 C 1239.51 597.61 1239.51 597.61 1237.9 597.63 C 1233.16 597.59 1230.77 597.57 1226.87 594.71 C 1225 592 1225 592 1224 588 C 1280.43 587.5 1280.43 587.5 1338 587 C 1338.33 574.46 1338.66 561.92 1339 549 C 1344 545 1344 545 1346.31 545.25 Z" fill="#1D4E33"></path>  <path d="M 825 600 C 830.44 602.14 833.37 606.98 836 612 C 838.04 620.4 837.91 629.19 834 637 C 826.29 649.56 812.96 655.83 799.11 659.4 C 779.23 663.82 755.44 662.79 736 657 C 735.35 656.81 734.69 656.61 734.02 656.42 C 720.97 652.43 706.1 646.56 698 635 C 701.67 636.4 705.09 638.05 708.56 639.88 C 733.83 652.55 769.61 656.26 796.9 647.56 C 802.98 645.36 808.58 642.54 814 639 C 814.64 638.59 815.28 638.18 815.95 637.76 C 821.93 633.4 825.06 625.93 827 619 C 827.31 615.77 827.31 615.77 827.25 612.5 C 827.26 611.42 827.26 610.33 827.27 609.22 C 826.99 605.86 826.19 603.14 825 600 Z" fill="#1E4F34"></path>  <path d="M 1342 448 C 1342.33 448 1342.66 448 1343 448 C 1343 449.98 1343 451.96 1343 454 C 1344.11 454.12 1345.23 454.25 1346.38 454.38 C 1350 455 1350 455 1352 457 C 1352.65 464.87 1348.99 471.23 1344.27 477.19 C 1339.25 482.93 1333.81 488.28 1328.44 493.69 C 1327.73 494.4 1327.02 495.11 1326.29 495.85 C 1322.33 499.8 1318.26 503.56 1314.02 507.22 C 1301.42 518.32 1289.62 529.44 1285 546 C 1280.47 546.37 1280.47 546.37 1278.39 544.74 C 1275.82 541.53 1275.81 538 1276 534 C 1277.82 525.93 1282.69 520.12 1288 514 C 1288.52 513.36 1289.04 512.72 1289.57 512.06 C 1292.73 508.2 1296.2 504.98 1300 501.75 C 1301.92 500.07 1303.71 498.32 1305.5 496.5 C 1307.81 494.15 1310.18 491.94 1312.68 489.8 C 1317.15 485.91 1321.41 481.85 1325.62 477.69 C 1326.35 476.99 1327.07 476.3 1327.82 475.58 C 1334.22 469.26 1340.64 461.58 1341.56 452.38 C 1341.69 451.15 1341.69 451.15 1341.82 449.9 C 1341.88 449.27 1341.94 448.65 1342 448 Z" fill="#1E4F34"></path>  <path d="M 964 469 C 971.3 471.88 975.57 480.68 978.81 487.44 C 983.35 498.54 984.43 508.78 984.41 520.62 C 984.41 523.19 984.42 525.76 984.44 528.33 C 984.48 534.71 984.49 541.08 984.51 547.46 C 984.52 552.87 984.54 558.28 984.58 563.69 C 984.59 566.21 984.59 568.73 984.58 571.24 C 984.62 580.85 985.59 588.31 990 597 C 982.4 597.13 974.8 597.21 967.2 597.27 C 964.62 597.3 962.03 597.33 959.45 597.38 C 955.73 597.44 952.02 597.47 948.3 597.49 C 947.15 597.51 945.99 597.54 944.8 597.57 C 936.8 597.57 936.8 597.57 932.79 594.72 C 931 592 931 592 930 588 C 946.83 588 963.66 588 981 588 C 979.68 586.02 978.36 584.04 977 582 C 975.18 577.01 974.71 572.4 974.73 567.14 C 974.72 566.39 974.72 565.64 974.71 564.86 C 974.7 563.24 974.7 561.62 974.7 560 C 974.69 557.42 974.67 554.84 974.65 552.26 C 974.6 544.93 974.57 537.6 974.54 530.27 C 974.53 525.78 974.5 521.28 974.46 516.79 C 974.45 515.09 974.44 513.39 974.44 511.69 C 974.44 498.44 972.98 487.03 967 475 C 966.42 473.82 965.85 472.65 965.25 471.44 C 964.84 470.63 964.42 469.83 964 469 Z" fill="#1D4D33"></path>  <path d="M 821 470 C 831.27 477.56 836.96 490.65 839 503 C 839.26 506.15 839.29 509.28 839.25 512.44 C 839.24 513.69 839.24 513.69 839.23 514.97 C 838.93 531.91 832.86 546.25 820.69 558.29 C 808.81 568.42 794.43 573.74 779 575 C 779 575.66 779 576.32 779 577 C 774.28 575.91 770.88 575.08 768 571 C 768.06 568.88 768.06 568.88 769 567 C 772.3 564.8 773.81 564.69 777.69 564.31 C 793.53 562.03 808.58 553.53 818.21 540.72 C 828.35 525.28 831.03 508.57 828.5 490.45 C 827.14 484.51 824.91 479.3 821.99 473.96 C 821 472 821 472 821 470 Z" fill="#1E4F34"></path>  <path d="M 1473 465 C 1483.56 472.76 1488.67 484.31 1491 497 C 1491.85 505.25 1491.9 513.01 1487 520 C 1480.45 527.9 1471.34 530.61 1461.42 531.8 C 1456.57 532.2 1451.71 532.12 1446.84 532.1 C 1445.7 532.1 1444.56 532.09 1443.38 532.09 C 1439.75 532.09 1436.13 532.08 1432.5 532.06 C 1430.03 532.06 1427.56 532.05 1425.09 532.05 C 1419.06 532.04 1413.03 532.02 1407 532 C 1406.34 533.32 1405.68 534.64 1405 536 C 1400.88 533.06 1398.32 531.22 1397 526.19 C 1397 523 1397 523 1398 522 C 1399.58 521.92 1401.17 521.91 1402.76 521.93 C 1404.28 521.95 1404.28 521.95 1405.83 521.96 C 1406.95 521.98 1408.06 521.99 1409.2 522.01 C 1411.55 522.03 1413.9 522.04 1416.24 522.06 C 1419.95 522.09 1423.65 522.12 1427.35 522.17 C 1452.55 523.46 1452.55 523.46 1474.74 513.4 C 1480.71 506.91 1481.45 500.42 1481.32 491.81 C 1480.56 482.8 1477.83 474.6 1473 467 C 1473 466.34 1473 465.68 1473 465 Z" fill="#1E4F34"></path>  <path d="M 1488.5 552.875 C 1491 552.995 1491 552.995 1492 553.995 C 1493.08 563.525 1488.98 571.775 1483.31 579.255 C 1475.82 587.975 1467.8 593.135 1457 596.995 C 1458.65 597.335 1460.3 597.655 1462 597.995 C 1462 598.335 1462 598.655 1462 598.995 C 1448.8 598.995 1435.6 598.995 1422 598.995 C 1420.682 599.072 1421.91 598.425 1421.577 599.001 C 1421.122 599.015 1421.683 598.998 1421 598.995 C 1419.98 598.815 1419.98 598.815 1418.94 598.625 C 1404.45 595.545 1392.35 588.285 1381 578.995 C 1381.33 578.345 1381.66 577.675 1382 576.995 C 1383.4 577.795 1383.4 577.795 1384.82 578.605 C 1392.99 583.165 1400.86 586.745 1410 588.995 C 1410.74 589.195 1411.48 589.385 1412.24 589.585 C 1423.88 591.345 1436.91 590.995 1448 586.995 C 1449 586.655 1450 586.315 1451.04 585.965 C 1463.05 581.475 1471.42 573.985 1478 562.995 C 1478.63 561.475 1479.23 559.935 1479.75 558.375 C 1480.16 557.265 1480.58 556.145 1481 554.995 C 1483.02 554.355 1483.02 554.355 1485 553.995 C 1486 552.995 1486 552.995 1488.5 552.875 Z" fill="#1F5035"></path>  <path d="M 116.104 424.596 C 116.904 424.586 117.704 424.586 118.534 424.576 C 121.184 424.556 123.834 424.556 126.474 424.566 C 128.324 424.566 130.174 424.556 132.024 424.546 C 135.904 424.546 139.784 424.546 143.664 424.556 C 148.604 424.566 153.554 424.546 158.494 424.516 C 162.324 424.496 166.144 424.496 169.964 424.506 C 171.794 424.506 173.614 424.496 175.434 424.486 C 199.134 424.346 199.134 424.346 208.184 433.246 C 209.294 434.306 209.294 434.306 210.414 435.386 C 210.944 435.926 211.464 436.456 212.004 436.996 C 211.344 437.326 210.684 437.656 210.004 437.996 C 208.984 437.536 207.964 437.066 206.914 436.586 C 202.694 434.676 198.974 434.576 194.394 434.616 C 193.554 434.606 192.724 434.606 191.874 434.596 C 189.144 434.586 186.414 434.596 183.684 434.606 C 181.774 434.596 179.864 434.596 177.964 434.596 C 173.974 434.586 169.994 434.596 166.004 434.606 C 160.894 434.626 155.794 434.616 150.684 434.596 C 146.754 434.586 142.824 434.586 138.894 434.596 C 137.004 434.596 135.124 434.596 133.244 434.596 C 130.614 434.586 127.984 434.596 125.354 434.616 C 124.574 434.606 123.804 434.596 123.004 434.596 C 118.484 434.646 115.574 435.186 112.004 437.996 C 108.334 442.986 107.544 446.706 107.464 452.866 C 107.004 454.996 107.004 454.996 105.284 456.356 C 102.514 457.136 100.744 456.766 98.004 455.996 C 97.854 452.836 97.764 449.666 97.684 446.496 C 97.644 445.616 97.604 444.726 97.564 443.816 C 97.444 437.436 98.544 432.746 103.004 427.996 C 107.234 424.806 110.974 424.566 116.104 424.596 Z" fill="#1D4D33"></path>  <path d="M 427 453 C 430.86 455.24 433.97 457.73 437 461 C 436.67 461.66 436.34 462.32 436 463 C 434.78 462.92 433.57 462.83 432.31 462.75 C 429.22 462.77 428.05 462.97 425.25 464.5 C 419.46 470.93 417.79 478.72 416 487 C 415.83 487.78 415.65 488.57 415.48 489.38 C 410.44 517.13 418.87 547.76 430 573 C 430.67 574.66 431.34 576.33 432 578 C 420.37 569.46 416.19 556.24 412 543 C 411.62 541.86 411.62 541.86 411.24 540.7 C 403.72 517.12 399.65 484.96 410.9 461.9 C 414.87 455.04 418.75 450.69 427 453 Z" fill="#1E4F34"></path>  <path d="M 269 453 C 272.86 455.24 275.97 457.73 279 461 C 278.67 461.66 278.34 462.32 278 463 C 276.78 462.92 275.57 462.83 274.31 462.75 C 271.22 462.77 270.05 462.97 267.25 464.5 C 261.46 470.93 259.79 478.72 258 487 C 257.83 487.78 257.65 488.57 257.48 489.38 C 252.44 517.13 260.87 547.76 272 573 C 272.67 574.66 273.34 576.33 274 578 C 262.37 569.46 258.19 556.24 254 543 C 253.62 541.86 253.62 541.86 253.24 540.7 C 245.72 517.12 241.65 484.96 252.9 461.9 C 256.87 455.04 260.75 450.69 269 453 Z" fill="#1E4F34"></path>  <path d="M 760 452 C 763.51 454.03 765.69 456.07 767 460 C 766.41 460.09 765.82 460.17 765.21 460.26 C 758.12 461.52 755.33 464.05 750.88 469.69 C 748.43 474.01 747.23 478.22 746 483 C 745.74 483.97 745.49 484.93 745.22 485.93 C 742.78 496.02 742.45 505.72 742.5 516.06 C 742.5 517.35 742.5 517.35 742.5 518.66 C 742.54 533.85 744.02 547.86 750 562 C 744.59 559.99 741.46 555.27 738.94 550.31 C 729.24 525.92 728.65 490.35 738.24 465.84 C 742.79 456.05 748.48 448.64 760 452 Z" fill="#1E4F34"></path>  <path d="M 601.813 464.313 C 605.603 467.243 605.603 467.243 607.003 469.003 C 607.003 469.993 607.003 470.983 607.003 472.003 C 606.373 472.073 605.743 472.153 605.093 472.223 C 598.473 473.243 593.543 474.923 589.003 480.003 C 580.503 493.613 579.813 507.363 579.813 522.923 C 579.813 525.233 579.793 527.543 579.773 529.853 C 579.733 541.173 580.473 552.163 584.003 563.003 C 578.753 560.943 576.293 556.873 573.873 552.003 C 569.553 541.483 569.673 529.973 569.743 518.783 C 569.753 516.503 569.743 514.222 569.723 511.953 C 569.713 496.893 570.303 479.943 581.343 468.403 C 587.353 463.323 594.313 460.813 601.813 464.313 Z" fill="#1E4F34"></path>  <path d="M 146 546 C 151.42 547.81 153.96 553.38 157 558 C 157.47 558.7 157.93 559.41 158.41 560.13 C 162.29 567.22 162.13 576.16 161 584 C 159.11 589.87 156.07 593.52 151 597 C 148.04 597.48 148.04 597.48 144.74 597.45 C 143.5 597.45 142.26 597.45 140.98 597.45 C 139.64 597.43 138.29 597.41 136.95 597.39 C 135.57 597.38 134.18 597.38 132.8 597.37 C 129.17 597.36 125.54 597.32 121.92 597.27 C 118.21 597.23 114.5 597.22 110.79 597.2 C 103.53 597.15 96.26 597.08 89 597 C 90.25 593.61 91.63 590.75 94 588 C 97.59 586.71 101.03 586.9 104.81 587.04 C 105.86 587.04 106.91 587.04 107.98 587.04 C 111.32 587.05 114.66 587.11 118 587.19 C 121.34 587.23 124.68 587.27 128.02 587.28 C 130.09 587.29 132.17 587.32 134.24 587.37 C 139.92 587.44 139.92 587.44 145.03 585.18 C 151.29 578.25 151.81 571.29 151.47 562.3 C 151.01 556.35 148.82 551.22 146 546 Z" fill="#1D4E33"></path>  <path d="M 198 465 C 198.66 465.99 199.32 466.98 200 468 C 202.58 468.25 202.58 468.25 205 468 C 207.86 472.86 209.47 477.36 209 483 C 207.95 485.88 206.67 488.54 205.28 491.27 C 203.48 495.12 202.75 498.83 202 503 C 201.01 503 200.02 503 199 503 C 197.3 504.32 195.83 505.79 194.3 507.3 C 187.83 512.08 181.28 513.76 173.31 513.69 C 172.01 513.68 172.01 513.68 170.68 513.67 C 158.09 513.21 148.69 506.85 140 498 C 143.46 498 144.48 498.8 147.44 500.5 C 156.65 504.77 168.09 504.75 177.75 501.89 C 186.9 497.64 192.28 491.26 196 482 C 197.11 478.47 197.3 474.93 197.56 471.25 C 197.65 470.08 197.73 468.91 197.82 467.7 C 197.91 466.37 197.91 466.37 198 465 Z" fill="#1E4F34"></path>  <path d="M 917.875 497.125 C 919.405 499.675 919.675 502.075 919.995 505.005 C 919.445 505.205 918.885 505.415 918.315 505.625 C 908.535 509.575 902.265 515.325 897.995 525.005 C 897.465 526.155 896.935 527.305 896.375 528.495 C 894.315 534.105 894.635 539.785 894.755 545.685 C 894.755 546.805 894.765 547.915 894.765 549.065 C 894.815 553.855 894.935 558.315 895.995 563.005 C 891.095 561.075 888.875 557.595 886.415 553.085 C 884.235 547.855 884.465 542.395 884.495 536.815 C 884.505 535.695 884.505 534.585 884.515 533.435 C 884.675 525.235 885.605 519.055 889.995 512.005 C 890.575 510.925 891.155 509.855 891.755 508.745 C 897.535 501.685 907.915 491.145 917.875 497.125 Z" fill="#1D4E34"></path>  <path d="M 1201 385 C 1207.34 388.54 1210.47 393.12 1213.12 399.84 C 1215.44 408.18 1214.87 417.06 1211.19 424.89 C 1207.22 431.93 1201.64 436.17 1194.17 439.12 C 1185.89 441.42 1176.99 440.89 1169.2 437.28 C 1164.69 434.66 1160.68 432.05 1159 427 C 1160.2 427.5 1161.39 427.99 1162.62 428.5 C 1171.69 431.48 1181.31 431.19 1189.95 427.12 C 1196.67 423.43 1200.33 418.21 1203.12 411.17 C 1205.57 402.31 1204.47 393.37 1201 385 Z" fill="#1D4E33"></path>  <path d="M 918 572 C 920.54 575.18 921.29 578.07 922 582 C 906.98 594.35 895.08 601.34 875 600.22 C 865.51 599.19 858.47 593.59 852 587 C 852.66 586.67 853.32 586.34 854 586 C 855.4 586.6 856.77 587.25 858.12 587.94 C 869.07 592.54 881.81 590.59 892.5 586.25 C 897.98 583.71 902.45 580.09 907.1 576.28 C 907.79 575.73 908.48 575.19 909.19 574.62 C 909.8 574.12 910.41 573.62 911.04 573.1 C 913.54 571.69 915.17 571.64 918 572 Z" fill="#1D4E33"></path>  <path d="M 1412 466 C 1412.79 466.26 1413.58 466.51 1414.39 466.78 C 1422.35 469.62 1429.11 474.01 1434 481 C 1431.5 480.01 1429.01 479.01 1426.54 477.96 C 1425.72 477.63 1424.9 477.29 1424.06 476.94 C 1423.25 476.6 1422.44 476.25 1421.6 475.9 C 1413.11 472.95 1402.73 472.28 1394.5 476.12 C 1389.72 478.85 1386.49 482.03 1384 487 C 1383.25 495.07 1384.74 502.28 1387 510 C 1380.34 506.36 1377.59 501.26 1375.19 494.19 C 1373.42 487.58 1372.59 481 1375.56 474.69 C 1385.56 463.66 1397.72 461 1412 466 Z" fill="#1E4F34"></path>  <path d="M 1237.29 485.871 C 1238.59 485.871 1239.89 485.861 1241.22 485.861 C 1242.64 485.861 1244.06 485.861 1245.48 485.871 C 1246.93 485.871 1248.38 485.861 1249.83 485.861 C 1252.86 485.861 1255.9 485.861 1258.94 485.871 C 1262.84 485.871 1266.74 485.871 1270.65 485.871 C 1273.64 485.861 1276.63 485.861 1279.63 485.871 C 1281.07 485.871 1282.51 485.871 1283.95 485.861 C 1285.95 485.861 1287.96 485.871 1289.97 485.871 C 1291.68 485.871 1291.68 485.871 1293.43 485.871 C 1296 486.001 1296 486.001 1297 487.001 C 1297.44 489.311 1297.44 489.311 1297 492.001 C 1291.68 496.951 1286.52 496.471 1279.54 496.251 C 1277.88 496.231 1277.88 496.231 1276.19 496.201 C 1271.48 496.141 1266.77 496.031 1262.06 495.921 C 1258.62 495.841 1255.17 495.801 1251.73 495.751 C 1250.67 495.721 1249.61 495.681 1248.53 495.651 C 1242.73 495.571 1238.66 496.051 1233.67 499.091 C 1231.04 500.521 1228.89 500.481 1226 500.001 C 1223.53 496.301 1223.53 494.381 1224 490.001 C 1227.85 486.021 1232 485.871 1237.29 485.871 Z" fill="#1D4D33"></path>  <path d="M 609 568 C 609.66 568 610.32 568 611 568 C 611.13 568.9 611.27 569.81 611.4 570.74 C 611.67 572.51 611.67 572.51 611.94 574.31 C 612.2 576.07 612.2 576.07 612.46 577.86 C 612.92 581.02 612.92 581.02 614 584 C 605.45 593.19 598.15 599.17 585.27 600.34 C 569.02 600.5 556.38 595.79 544 585 C 544 584.34 544 583.68 544 583 C 546.51 584 549.01 585 551.5 586.04 C 552.74 586.54 552.74 586.54 554 587.06 C 555.24 587.57 555.24 587.57 556.5 588.1 C 566.6 591.74 579.28 591.3 589.25 587.45 C 597.03 583.34 602.59 576.73 607.62 569.65 C 608.08 569.11 608.53 568.56 609 568 Z" fill="#1D4F34"></path>  <path d="M 1622 454 C 1625.87 455.47 1628.56 456.53 1631 460 C 1630.68 465.38 1629.03 469.66 1626.61 474.4 C 1626.27 475.08 1625.93 475.77 1625.58 476.47 C 1624.87 477.9 1624.15 479.33 1623.42 480.76 C 1622.32 482.92 1621.24 485.09 1620.17 487.26 C 1611.08 505.42 1611.08 505.42 1605.44 508.31 C 1601.69 507.83 1600.34 505.85 1598 503 C 1596.69 500.69 1596.69 500.69 1596 499 C 1596.76 498.46 1597.51 497.92 1598.29 497.36 C 1601.23 494.8 1602.55 492.66 1604.3 489.2 C 1604.89 488.06 1605.47 486.92 1606.06 485.76 C 1606.67 484.55 1607.27 483.34 1607.88 482.12 C 1608.5 480.9 1609.12 479.67 1609.74 478.45 C 1611.51 474.97 1613.26 471.49 1615 468 C 1615.82 466.37 1616.65 464.74 1617.47 463.11 C 1618.99 460.08 1620.5 457.04 1622 454 Z" fill="#1D4E33"></path>  <path d="M 221 392 C 223.97 392 226.94 392 230 392 C 230.05 399.64 230.09 407.27 230.11 414.91 C 230.12 417.51 230.13 420.1 230.15 422.7 C 230.18 426.43 230.19 430.16 230.2 433.89 C 230.21 435.06 230.22 436.23 230.23 437.43 C 230.23 438.51 230.23 439.59 230.23 440.7 C 230.23 441.66 230.24 442.61 230.24 443.59 C 230 446 230 446 228 449 C 225.64 449.44 225.64 449.44 223 449 C 220.76 447.25 220.76 447.25 218.69 445 C 217.99 444.26 217.29 443.51 216.57 442.75 C 216.05 442.17 215.54 441.6 215 441 C 215.64 440.71 216.28 440.42 216.94 440.12 C 219.15 439.17 219.15 439.17 220 437 C 220.12 435.55 220.18 434.1 220.21 432.64 C 220.23 431.74 220.25 430.84 220.27 429.91 C 220.29 428.45 220.29 428.45 220.32 426.96 C 220.34 425.96 220.36 424.97 220.38 423.94 C 220.44 420.75 220.5 417.56 220.56 414.38 C 220.61 412.22 220.65 410.06 220.69 407.9 C 220.8 402.6 220.9 397.3 221 392 Z" fill="#1E5035"></path>  <path d="M 833 433 C 838.74 435.43 841.84 440.48 844.38 446 C 845.2 449.98 845.46 452.92 845 457 C 841.44 460.75 838.49 461.93 833.34 462.17 C 812.19 462.39 812.19 462.39 804.03 455.6 C 800.63 452.92 796.82 451 793 449 C 796.22 447.39 799.3 449.03 802.62 449.94 C 812.93 452.54 824.43 454.64 834 449 C 835.42 447.81 835.42 447.81 835.19 444.38 C 835.15 440.26 834.3 436.89 833 433 Z" fill="#1E5034"></path>  <path d="M 737 588 C 740.28 588.52 741.77 588.81 744.38 591 C 746.68 595.26 746 598.37 745 603 C 744.65 604.18 744.3 605.35 743.94 606.56 C 741.57 615.42 742.12 626.37 745 635 C 738.77 631.67 735.64 626.85 733.38 620.18 C 731.4 608.92 733.28 598.64 737 588 Z" fill="#1E5135"></path>  <path d="M 103.063 467.5 C 109.643 468.34 114.223 472 118.563 476.88 C 119.033 477.58 119.513 478.28 120.003 479 C 119.483 478.83 118.973 478.67 118.443 478.5 C 115.253 477.85 112.243 477.88 109.003 478 C 107.273 479.73 107.783 481.96 107.753 484.31 C 107.873 494.87 110.813 503.36 115.793 512.6 C 117.003 515 117.003 515 117.003 517 C 116.343 517 115.683 517 115.003 517 C 103.723 504.3 97.643 489.68 97.703 472.65 C 98.143 468.71 99.213 468.13 103.063 467.5 Z" fill="#1E4F34"></path>  <path d="M 702 551 C 704.92 552.4 707.63 554 710.37 555.73 C 716.1 559.19 722.1 561.88 728.24 564.55 C 731.46 565.96 734.66 567.39 737.87 568.82 C 738.5 569.09 739.12 569.37 739.76 569.66 C 751.13 574.72 761.67 579.56 771 588 C 770.5 588.99 770.5 588.99 770 590 C 769.18 589.57 768.36 589.15 767.52 588.71 C 760.73 585.22 753.88 581.91 746.9 578.82 C 746.28 578.54 745.65 578.26 745 577.98 C 741.86 576.59 738.71 575.2 735.56 573.83 C 725.52 569.41 715.37 564.79 707.31 557.19 C 706.5 556.44 705.7 555.69 704.86 554.92 C 703 553 703 553 702 551 Z" fill="#1E5034"></path>  <path d="M 1550 454 C 1555 455 1555 455 1556.58 456.85 C 1557.72 458.9 1558.86 460.95 1560 463 C 1558.02 465.31 1556.04 467.62 1554 470 C 1552.68 469.67 1551.36 469.34 1550 469 C 1550 464.05 1550 459.1 1550 454 Z" fill="#1F5537"></path>  <path d="M 1046 454 C 1052 456 1052 456 1053.94 458.88 C 1055 462 1055 462 1055 464.12 C 1053.52 466.91 1051.63 468.31 1049 470 C 1048.01 469.67 1047.02 469.34 1046 469 C 1046 464.05 1046 459.1 1046 454 Z" fill="#1E5135"></path>  <path d="M 766 585 C 767.65 585.99 769.3 586.98 771 588 C 770.67 588.66 770.34 589.32 770 590 C 768.35 589.01 766.7 588.02 765 587 C 765.33 586.34 765.66 585.68 766 585 Z" fill="#1E5235"></path></svg>